<svg width="1733" height="903" viewBox="0 0 1733 903" fill="none" xmlns="http://www.w3.org/2000/svg">
<rect width="1733" height="903" fill="white"/>
<rect x="15" y="21" width="391" height="856" fill="#F2F6FF"/>
<rect x="15" y="21" width="391" height="856" stroke="black" stroke-width="2"/>
<path d="M68.3593 84V73.76L60.6472 62.656H67.2713L71.3033 68.48L75.1753 62.656H81.8953L73.9273 73.76V84H68.3593ZM88.5733 73.568C87.7413 73.568 86.8453 73.952 86.2693 74.496C85.6293 75.104 85.2773 76 85.2773 76.832C85.2773 77.696 85.6933 78.528 86.2693 79.104C86.8773 79.712 87.7093 80.064 88.5733 80.064C89.4053 80.064 90.2373 79.712 90.8453 79.104C91.4853 78.496 91.8373 77.664 91.8373 76.832C91.8373 76.064 91.4853 75.136 90.8453 74.496C90.2693 73.952 89.3733 73.568 88.5733 73.568ZM97.1493 76.832C97.1493 78.752 96.5093 80.576 94.9412 82.112C93.0533 83.968 90.8453 84.48 88.5413 84.48C86.4613 84.48 84.1573 84.064 82.1733 82.112C80.6053 80.576 79.9653 78.752 79.9653 76.832C79.9653 74.272 81.1173 72.608 82.1733 71.584C83.3573 70.432 85.4373 69.216 88.5413 69.216C91.7093 69.216 93.7573 70.464 94.9412 71.584C95.9973 72.608 97.1493 74.272 97.1493 76.832ZM100.104 69.696H105.224V77.696C105.224 78.272 105.32 79.168 105.992 79.776C106.504 80.224 107.176 80.32 107.784 80.32C108.424 80.32 109.032 80.256 109.608 79.712C110.248 79.072 110.344 78.336 110.344 77.696V69.696H115.464V78.624C115.464 79.84 115.368 81.152 114.088 82.464C112.328 84.288 109.864 84.48 107.912 84.48C105.768 84.48 103.144 84.256 101.448 82.432C100.36 81.28 100.104 80 100.104 78.624V69.696ZM118.979 84V69.696H124.099V72.032C124.611 71.072 125.347 70.432 126.115 70.048C126.883 69.632 127.811 69.472 128.771 69.472C128.899 69.472 129.123 69.504 129.795 69.536V74.368C129.539 74.24 128.835 73.856 127.587 73.856C126.915 73.856 125.987 73.952 125.251 74.624C124.163 75.616 124.099 77.12 124.099 77.888V84H118.979ZM148.629 73.888H145.045V84H139.925V73.888H138.133V69.696H139.925V67.936C139.925 66.016 140.181 63.968 141.877 62.336C143.253 60.992 145.365 60.32 147.509 60.32C149.525 60.32 151.893 60.928 153.237 62.24C154.133 63.104 155.029 64.672 155.029 67.04V67.776H149.909V67.296C149.909 67.168 149.909 66.016 149.269 65.376C148.853 64.96 148.149 64.736 147.477 64.736C146.837 64.736 146.165 64.992 145.717 65.472C145.109 66.112 145.045 66.88 145.045 67.68V69.696H148.629V73.888ZM149.909 69.696H155.029V84H149.909V69.696ZM166.805 73.888H163.893V84H158.773V73.888H157.141V69.696H158.773V64.992H163.893V69.696H166.805V73.888Z" fill="#03010C"/>
<path d="M69.026 537H63.49V515.656H69.026L79.234 528.712V515.656H84.77V537H79.234L69.026 523.944V537ZM103.928 530.248V530.792H93.272C93.272 531.56 93.56 532.584 94.168 533.192C94.488 533.512 95.128 533.896 96.28 533.896C96.408 533.896 97.304 533.864 97.944 533.512C98.264 533.32 98.616 533 98.84 532.552H103.736C103.512 533.352 103.064 534.472 102.008 535.496C100.952 536.52 99.288 537.48 96.184 537.48C94.296 537.48 92.024 537.064 90.264 535.304C89.336 534.376 88.152 532.616 88.152 529.896C88.152 527.496 89.048 525.576 90.296 524.36C91.48 523.208 93.336 522.28 96.152 522.28C97.816 522.28 99.96 522.632 101.656 524.232C103.672 526.152 103.928 528.648 103.928 530.248ZM93.432 527.848H99.224C99.096 527.304 98.776 526.696 98.392 526.312C97.72 525.64 96.792 525.544 96.28 525.544C95.416 525.544 94.744 525.768 94.2 526.312C93.848 526.696 93.528 527.208 93.432 527.848ZM105.125 522.696H110.853L114.245 530.248L117.861 522.696H120.997L124.613 530.472L128.197 522.696H133.893L126.405 537H122.949L119.365 529.128L115.941 537H112.485L105.125 522.696ZM154.207 524.072V522.696H159.327V537H154.207V535.432C153.023 537.064 151.167 537.48 149.759 537.48C148.223 537.48 146.335 537.032 144.607 535.208C143.231 533.736 142.559 532.104 142.559 529.96C142.559 527.272 143.615 525.384 144.767 524.232C145.983 523.016 147.871 522.216 149.919 522.216C152.223 522.216 153.599 523.4 154.207 524.072ZM151.071 526.568C150.431 526.568 149.567 526.792 148.831 527.496C148.127 528.168 147.807 529.096 147.807 529.832C147.807 530.664 148.159 531.56 148.799 532.168C149.343 532.68 150.239 533.128 151.103 533.128C151.935 533.128 152.767 532.776 153.407 532.136C153.855 531.688 154.367 530.984 154.367 529.832C154.367 529.16 154.175 528.264 153.375 527.496C152.895 527.048 152.159 526.568 151.071 526.568ZM162.854 537V522.696H167.974V525.032C168.486 524.072 169.222 523.432 169.99 523.048C170.758 522.632 171.686 522.472 172.646 522.472C172.774 522.472 172.998 522.504 173.67 522.536V527.368C173.414 527.24 172.71 526.856 171.462 526.856C170.79 526.856 169.862 526.952 169.126 527.624C168.038 528.616 167.974 530.12 167.974 530.888V537H162.854ZM175.948 537V522.696H181.068V525.032C181.58 524.072 182.316 523.432 183.084 523.048C183.852 522.632 184.78 522.472 185.74 522.472C185.868 522.472 186.092 522.504 186.764 522.536V527.368C186.508 527.24 185.804 526.856 184.556 526.856C183.884 526.856 182.956 526.952 182.22 527.624C181.132 528.616 181.068 530.12 181.068 530.888V537H175.948ZM189.041 522.696H194.161V537H189.041V522.696ZM188.721 516.744C188.721 515.144 190.001 513.864 191.601 513.864C193.201 513.864 194.481 515.144 194.481 516.744C194.481 518.344 193.201 519.624 191.601 519.624C190.001 519.624 188.721 518.344 188.721 516.744ZM195.875 522.696H201.603L205.027 530.024L208.515 522.696H214.211L206.755 537H203.267L195.875 522.696ZM227.051 524.072V522.696H232.171V537H227.051V535.432C225.867 537.064 224.011 537.48 222.603 537.48C221.067 537.48 219.179 537.032 217.451 535.208C216.075 533.736 215.403 532.104 215.403 529.96C215.403 527.272 216.459 525.384 217.611 524.232C218.827 523.016 220.715 522.216 222.763 522.216C225.067 522.216 226.443 523.4 227.051 524.072ZM223.915 526.568C223.275 526.568 222.411 526.792 221.675 527.496C220.971 528.168 220.651 529.096 220.651 529.832C220.651 530.664 221.003 531.56 221.643 532.168C222.187 532.68 223.083 533.128 223.947 533.128C224.779 533.128 225.611 532.776 226.251 532.136C226.699 531.688 227.211 530.984 227.211 529.832C227.211 529.16 227.019 528.264 226.219 527.496C225.739 527.048 225.003 526.568 223.915 526.568ZM235.698 513.672H240.818V537H235.698V513.672ZM243.395 535.816L245.219 532.264C245.827 532.712 246.563 533.096 247.267 533.32C247.907 533.544 248.707 533.672 249.251 533.672C249.635 533.672 250.243 533.576 250.563 533.288C250.787 533.064 250.819 532.872 250.819 532.616C250.819 532.392 250.787 532.168 250.563 531.976C250.243 531.688 249.731 531.592 249.219 531.464L247.875 531.144C247.171 530.984 246.147 530.728 245.379 529.896C244.835 529.32 244.451 528.52 244.451 527.432C244.451 526.056 244.995 524.776 245.795 523.944C246.883 522.824 248.803 522.216 250.915 522.216C253.027 522.216 254.659 522.792 255.491 523.144L253.763 526.408C253.059 526.088 252.003 525.704 251.075 525.704C250.563 525.704 250.211 525.8 249.891 525.992C249.603 526.152 249.443 526.376 249.443 526.696C249.443 527.144 249.731 527.368 250.051 527.496C250.531 527.688 250.947 527.688 251.747 527.912L252.675 528.168C253.347 528.36 254.371 528.872 254.787 529.288C255.491 529.96 255.875 531.08 255.875 532.136C255.875 533.864 255.139 535.016 254.435 535.688C252.771 537.352 250.339 537.48 249.155 537.48C247.875 537.48 245.859 537.32 243.395 535.816Z" fill="#03010C"/>
<path d="M289.474 62.656H295.01V79.296H301.666V84H289.474V62.656ZM312.058 73.568C311.226 73.568 310.33 73.952 309.754 74.496C309.114 75.104 308.762 76 308.762 76.832C308.762 77.696 309.178 78.528 309.754 79.104C310.362 79.712 311.194 80.064 312.058 80.064C312.89 80.064 313.722 79.712 314.33 79.104C314.97 78.496 315.322 77.664 315.322 76.832C315.322 76.064 314.97 75.136 314.33 74.496C313.754 73.952 312.858 73.568 312.058 73.568ZM320.634 76.832C320.634 78.752 319.994 80.576 318.426 82.112C316.538 83.968 314.33 84.48 312.026 84.48C309.946 84.48 307.642 84.064 305.658 82.112C304.09 80.576 303.45 78.752 303.45 76.832C303.45 74.272 304.602 72.608 305.658 71.584C306.842 70.432 308.922 69.216 312.026 69.216C315.194 69.216 317.242 70.464 318.426 71.584C319.482 72.608 320.634 74.272 320.634 76.832ZM334.564 69.696H339.684V83.104C339.684 85.248 339.492 87.2 337.732 89.024C335.908 90.88 333.508 91.328 331.428 91.328C328.772 91.328 326.564 90.656 324.74 88.8C323.908 87.936 323.364 87.072 323.172 85.824H328.868C329.06 86.4 329.572 87.296 331.268 87.296C332.068 87.296 332.868 87.136 333.54 86.496C334.404 85.696 334.564 84.672 334.564 83.84V82.4C332.964 84.096 331.428 84.288 330.276 84.288C327.652 84.288 325.956 83.264 324.996 82.272C323.716 80.96 323.012 79.008 323.012 77.056C323.012 74.816 323.876 72.768 325.124 71.456C326.5 70.016 328.42 69.28 330.308 69.28C331.204 69.28 333.06 69.472 334.564 71.168V69.696ZM331.524 73.536C330.66 73.536 329.924 73.824 329.252 74.496C328.516 75.264 328.26 76.128 328.26 76.8C328.26 77.632 328.612 78.496 329.252 79.136C329.924 79.808 330.788 80.064 331.556 80.064C332.356 80.064 333.252 79.712 333.86 79.104C334.5 78.464 334.82 77.536 334.82 76.8C334.82 76.064 334.404 75.072 333.796 74.464C333.22 73.888 332.388 73.536 331.524 73.536ZM343.213 69.696H348.333V84H343.213V69.696ZM342.893 63.744C342.893 62.144 344.173 60.864 345.773 60.864C347.373 60.864 348.653 62.144 348.653 63.744C348.653 65.344 347.373 66.624 345.773 66.624C344.173 66.624 342.893 65.344 342.893 63.744ZM351.807 84V69.696H356.927V71.488C358.335 69.632 360.223 69.376 361.471 69.376C362.943 69.376 364.511 69.728 365.695 70.912C366.911 72.128 367.039 73.344 367.039 74.912V84H361.919V76.768C361.919 75.936 361.951 74.688 361.279 73.984C360.799 73.472 360.159 73.376 359.647 73.376C358.847 73.376 358.175 73.664 357.759 74.048C357.247 74.528 356.927 75.456 356.927 76.32V84H351.807Z" fill="#03010C"/>
<rect x="61.5" y="115.5" width="307" height="334" fill="#D9D9D9"/>
<rect x="61.5" y="115.5" width="307" height="334" stroke="black"/>
<path d="M289.75 347.375H140.25C130.723 347.375 123 340.114 123 331.156V233.844C123 224.886 130.723 217.625 140.25 217.625H289.75C299.277 217.625 307 224.886 307 233.844V331.156C307 340.114 299.277 347.375 289.75 347.375ZM163.25 236.547C152.135 236.547 143.125 245.018 143.125 255.469C143.125 265.919 152.135 274.391 163.25 274.391C174.365 274.391 183.375 265.919 183.375 255.469C183.375 245.018 174.365 236.547 163.25 236.547ZM146 325.75H284V287.906L252.549 258.336C250.865 256.752 248.135 256.752 246.45 258.336L197.75 304.125L177.799 285.367C176.115 283.784 173.385 283.784 171.7 285.367L146 309.531V325.75Z" fill="#CBCBCB"/>
<rect x="61.5" y="571.5" width="138" height="194" fill="#D9D9D9"/>
<rect x="61.5" y="571.5" width="138" height="194" stroke="black"/>
<path d="M156.094 690.625H104.906C101.644 690.625 99 688.149 99 685.094V651.906C99 648.851 101.644 646.375 104.906 646.375H156.094C159.356 646.375 162 648.851 162 651.906V685.094C162 688.149 159.356 690.625 156.094 690.625ZM112.781 652.828C108.976 652.828 105.891 655.717 105.891 659.281C105.891 662.845 108.976 665.734 112.781 665.734C116.587 665.734 119.672 662.845 119.672 659.281C119.672 655.717 116.587 652.828 112.781 652.828ZM106.875 683.25H154.125V670.344L143.357 660.259C142.78 659.719 141.845 659.719 141.268 660.259L124.594 675.875L117.763 669.478C117.186 668.938 116.251 668.938 115.675 669.478L106.875 677.719V683.25Z" fill="#CBCBCB"/>
<rect x="230.5" y="571.5" width="138" height="194" fill="#D9D9D9"/>
<rect x="230.5" y="571.5" width="138" height="194" stroke="black"/>
<path d="M325.094 690.625H273.906C270.644 690.625 268 688.149 268 685.094V651.906C268 648.851 270.644 646.375 273.906 646.375H325.094C328.356 646.375 331 648.851 331 651.906V685.094C331 688.149 328.356 690.625 325.094 690.625ZM281.781 652.828C277.976 652.828 274.891 655.717 274.891 659.281C274.891 662.845 277.976 665.734 281.781 665.734C285.587 665.734 288.672 662.845 288.672 659.281C288.672 655.717 285.587 652.828 281.781 652.828ZM275.875 683.25H323.125V670.344L312.357 660.259C311.78 659.719 310.845 659.719 310.268 660.259L293.594 675.875L286.763 669.478C286.186 668.938 285.251 668.938 284.675 669.478L275.875 677.719V683.25Z" fill="#CBCBCB"/>
<rect width="393" height="60" transform="translate(14 818)" fill="#F2F6FF"/>
<path d="M133 828.625C134.077 828.625 135.111 829.053 135.873 829.815C136.634 830.577 137.062 831.61 137.062 832.688V833.5H128.938V832.688C128.938 831.61 129.366 830.577 130.127 829.815C130.889 829.053 131.923 828.625 133 828.625ZM138.688 833.5V832.688C138.688 831.179 138.088 829.732 137.022 828.666C135.955 827.599 134.508 827 133 827C131.492 827 130.045 827.599 128.978 828.666C127.912 829.732 127.312 831.179 127.312 832.688V833.5H121.625V849.75C121.625 850.612 121.967 851.439 122.577 852.048C123.186 852.658 124.013 853 124.875 853H141.125C141.987 853 142.814 852.658 143.423 852.048C144.033 851.439 144.375 850.612 144.375 849.75V833.5H138.688ZM123.25 835.125H142.75V849.75C142.75 850.181 142.579 850.594 142.274 850.899C141.969 851.204 141.556 851.375 141.125 851.375H124.875C124.444 851.375 124.031 851.204 123.726 850.899C123.421 850.594 123.25 850.181 123.25 849.75V835.125Z" fill="#03010C"/>
<path fill-rule="evenodd" clip-rule="evenodd" d="M354 827.5C355.642 827.5 357.267 827.823 358.784 828.451C360.3 829.08 361.678 830 362.839 831.161C364 832.322 364.92 833.7 365.549 835.216C366.177 836.733 366.5 838.358 366.5 840C366.5 846.904 360.904 852.5 354 852.5C347.096 852.5 341.5 846.904 341.5 840C341.5 833.096 347.096 827.5 354 827.5ZM355.25 841.25H352.75C349.655 841.25 346.999 843.124 345.853 845.8C347.666 848.342 350.639 850 354 850C357.361 850 360.334 848.342 362.147 845.8C361.001 843.124 358.345 841.25 355.25 841.25ZM354 831.25C351.929 831.25 350.25 832.929 350.25 835C350.25 837.071 351.929 838.75 354 838.75C356.071 838.75 357.75 837.071 357.75 835C357.75 832.929 356.071 831.25 354 831.25Z" fill="#03010C"/>
<g clip-path="url(#clip0_40000073_2036)">
<path d="M63.31 830.5C62.013 830.5 60.7352 830.813 59.585 831.412C58.4349 832.012 57.4464 832.88 56.7034 833.943C55.9605 835.006 55.4851 836.233 55.3175 837.519C55.15 838.805 55.2953 840.112 55.7411 841.33C56.1869 842.548 56.92 843.64 57.8782 844.515C58.8364 845.389 59.9914 846.018 61.2451 846.351C62.4988 846.683 63.8141 846.708 65.0795 846.423C66.3448 846.138 67.5227 845.553 68.5132 844.715C68.4894 845.009 68.589 845.311 68.8144 845.535L72.9744 849.695C73.1695 849.89 77.2241 853 77.5 853C77.7759 853 77.8049 853.195 78 853C78.1951 852.805 78 852.776 78 852.5C78 852.224 74.6406 848.419 74.4455 848.224L70.2855 844.064C70.1789 843.957 70.0503 843.875 69.9087 843.823C69.7671 843.771 69.6158 843.751 69.4655 843.763C70.4575 842.589 71.0934 841.157 71.2981 839.634C71.5029 838.11 71.2679 836.561 70.621 835.167C69.9741 833.773 68.9421 832.593 67.6468 831.766C66.3514 830.939 64.8467 830.5 63.31 830.5ZM56.81 838.56C56.81 837.706 56.9781 836.861 57.3047 836.072C57.6314 835.284 58.1102 834.567 58.7138 833.964C59.3174 833.36 60.0339 832.881 60.8225 832.555C61.6111 832.228 62.4564 832.06 63.31 832.06C64.1636 832.06 65.0088 832.228 65.7974 832.555C66.586 832.881 67.3026 833.36 67.9062 833.964C68.5097 834.567 68.9885 835.284 69.3152 836.072C69.6418 836.861 69.81 837.706 69.81 838.56C69.81 840.284 69.1251 841.937 67.9062 843.156C66.6872 844.375 65.0339 845.06 63.31 845.06C61.5861 845.06 59.9328 844.375 58.7138 843.156C57.4948 841.937 56.81 840.284 56.81 838.56Z" fill="#03010C"/>
</g>
<path d="M274.246 828.921C274.703 828.921 275.153 829.041 275.55 829.268C275.947 829.495 276.277 829.822 276.509 830.216L277.459 831.834H279.875C280.88 831.834 281.845 832.234 282.556 832.945C283.267 833.655 283.666 834.62 283.667 835.625V846.708C283.667 847.206 283.569 847.699 283.378 848.159C283.187 848.619 282.908 849.037 282.556 849.389C282.204 849.742 281.786 850.021 281.326 850.211C280.866 850.402 280.373 850.5 279.875 850.5H264.125C263.119 850.5 262.155 850.101 261.444 849.389C260.733 848.678 260.333 847.714 260.333 846.708V835.625C260.333 834.619 260.733 833.655 261.444 832.944C262.155 832.233 263.119 831.833 264.125 831.833H266.552L267.572 830.172C267.807 829.79 268.136 829.474 268.528 829.255C268.919 829.035 269.36 828.92 269.809 828.92L274.246 828.921ZM274.246 830.671H269.809C269.681 830.671 269.555 830.699 269.44 830.753C269.324 830.808 269.221 830.886 269.139 830.984L269.063 831.089L267.788 833.166C267.71 833.293 267.601 833.399 267.47 833.472C267.34 833.545 267.192 833.583 267.043 833.583H264.126C263.858 833.583 263.592 833.636 263.344 833.738C263.097 833.841 262.871 833.991 262.682 834.181C262.492 834.371 262.342 834.596 262.239 834.843C262.136 835.091 262.083 835.357 262.083 835.625V846.708C262.083 847.835 262.998 848.75 264.125 848.75H279.875C280.416 848.75 280.936 848.535 281.319 848.152C281.702 847.769 281.917 847.25 281.917 846.708V835.625C281.917 835.084 281.702 834.564 281.319 834.181C280.936 833.798 280.416 833.583 279.875 833.583H276.958C276.806 833.583 276.656 833.544 276.523 833.468C276.391 833.392 276.281 833.283 276.203 833.152L274.999 831.102C274.922 830.971 274.812 830.862 274.68 830.786C274.548 830.71 274.398 830.67 274.246 830.67M272 835.333C273.392 835.333 274.728 835.886 275.712 836.871C276.697 837.856 277.25 839.191 277.25 840.583C277.25 841.976 276.697 843.311 275.712 844.296C274.728 845.28 273.392 845.833 272 845.833C270.608 845.833 269.272 845.28 268.288 844.296C267.303 843.311 266.75 841.976 266.75 840.583C266.75 839.191 267.303 837.856 268.288 836.871C269.272 835.886 270.608 835.333 272 835.333ZM272 837.083C271.54 837.083 271.085 837.174 270.661 837.35C270.236 837.526 269.85 837.783 269.525 838.108C269.2 838.433 268.942 838.819 268.766 839.244C268.591 839.669 268.5 840.124 268.5 840.583C268.5 841.043 268.591 841.498 268.766 841.923C268.942 842.347 269.2 842.733 269.525 843.058C269.85 843.383 270.236 843.641 270.661 843.817C271.085 843.993 271.54 844.083 272 844.083C272.928 844.083 273.818 843.715 274.475 843.058C275.131 842.402 275.5 841.512 275.5 840.583C275.5 839.655 275.131 838.765 274.475 838.108C273.818 837.452 272.928 837.083 272 837.083Z" fill="#03010C"/>
<path d="M190.083 840.712C190.083 838.328 190.083 837.136 190.625 836.149C191.165 835.16 192.153 834.548 194.129 833.321L196.212 832.028C198.301 830.731 199.346 830.083 200.5 830.083C201.654 830.083 202.698 830.731 204.787 832.028L206.871 833.321C208.847 834.548 209.835 835.16 210.376 836.149C210.917 837.137 210.917 838.328 210.917 840.711V842.297C210.917 846.359 210.917 848.392 209.696 849.654C208.475 850.917 206.511 850.917 202.583 850.917H198.417C194.489 850.917 192.524 850.917 191.304 849.654C190.084 848.392 190.083 846.36 190.083 842.297V840.712Z" stroke="#03010C" stroke-width="1.5625"/>
<path d="M197.375 844.667C198.26 845.323 199.339 845.708 200.5 845.708C201.661 845.708 202.74 845.323 203.625 844.667" stroke="#03010C" stroke-width="1.5625" stroke-linecap="round"/>
<path d="M35 819H97" stroke="#03010C" stroke-width="2"/>
<rect x="448" y="21" width="391" height="856" fill="#F2F6FF"/>
<rect x="448" y="21" width="391" height="856" stroke="black" stroke-width="2"/>
<path d="M501.359 84V73.76L493.647 62.656H500.271L504.303 68.48L508.175 62.656H514.895L506.927 73.76V84H501.359ZM521.573 73.568C520.741 73.568 519.845 73.952 519.269 74.496C518.629 75.104 518.277 76 518.277 76.832C518.277 77.696 518.693 78.528 519.269 79.104C519.877 79.712 520.709 80.064 521.573 80.064C522.405 80.064 523.237 79.712 523.845 79.104C524.485 78.496 524.837 77.664 524.837 76.832C524.837 76.064 524.485 75.136 523.845 74.496C523.269 73.952 522.373 73.568 521.573 73.568ZM530.149 76.832C530.149 78.752 529.509 80.576 527.941 82.112C526.053 83.968 523.845 84.48 521.541 84.48C519.461 84.48 517.157 84.064 515.173 82.112C513.605 80.576 512.965 78.752 512.965 76.832C512.965 74.272 514.117 72.608 515.173 71.584C516.357 70.432 518.437 69.216 521.541 69.216C524.709 69.216 526.757 70.464 527.941 71.584C528.997 72.608 530.149 74.272 530.149 76.832ZM533.104 69.696H538.224V77.696C538.224 78.272 538.32 79.168 538.992 79.776C539.504 80.224 540.176 80.32 540.784 80.32C541.424 80.32 542.032 80.256 542.608 79.712C543.248 79.072 543.344 78.336 543.344 77.696V69.696H548.464V78.624C548.464 79.84 548.368 81.152 547.088 82.464C545.328 84.288 542.864 84.48 540.912 84.48C538.768 84.48 536.144 84.256 534.448 82.432C533.36 81.28 533.104 80 533.104 78.624V69.696ZM551.979 84V69.696H557.099V72.032C557.611 71.072 558.347 70.432 559.115 70.048C559.883 69.632 560.811 69.472 561.771 69.472C561.899 69.472 562.123 69.504 562.795 69.536V74.368C562.539 74.24 561.835 73.856 560.587 73.856C559.915 73.856 558.987 73.952 558.251 74.624C557.163 75.616 557.099 77.12 557.099 77.888V84H551.979ZM581.629 73.888H578.045V84H572.925V73.888H571.133V69.696H572.925V67.936C572.925 66.016 573.181 63.968 574.877 62.336C576.253 60.992 578.365 60.32 580.509 60.32C582.525 60.32 584.893 60.928 586.237 62.24C587.133 63.104 588.029 64.672 588.029 67.04V67.776H582.909V67.296C582.909 67.168 582.909 66.016 582.269 65.376C581.853 64.96 581.149 64.736 580.477 64.736C579.837 64.736 579.165 64.992 578.717 65.472C578.109 66.112 578.045 66.88 578.045 67.68V69.696H581.629V73.888ZM582.909 69.696H588.029V84H582.909V69.696ZM599.805 73.888H596.893V84H591.773V73.888H590.141V69.696H591.773V64.992H596.893V69.696H599.805V73.888Z" fill="#03010C"/>
<path d="M505.545 451.928H502.057V459H496.521V437.656H505.353C507.209 437.656 509.129 438.008 510.761 439.576C512.425 441.176 512.745 442.968 512.745 444.76C512.745 446.456 512.521 448.44 510.857 450.072C509.193 451.704 507.209 451.928 505.545 451.928ZM502.057 442.136V447.448H503.913C504.489 447.448 505.577 447.384 506.249 446.776C506.921 446.2 506.953 445.336 506.953 444.824C506.953 444.248 506.889 443.48 506.313 442.904C505.673 442.232 504.649 442.136 503.945 442.136H502.057ZM522.417 448.568C521.585 448.568 520.689 448.952 520.113 449.496C519.473 450.104 519.121 451 519.121 451.832C519.121 452.696 519.537 453.528 520.113 454.104C520.721 454.712 521.553 455.064 522.417 455.064C523.249 455.064 524.081 454.712 524.689 454.104C525.329 453.496 525.681 452.664 525.681 451.832C525.681 451.064 525.329 450.136 524.689 449.496C524.113 448.952 523.217 448.568 522.417 448.568ZM530.993 451.832C530.993 453.752 530.353 455.576 528.785 457.112C526.897 458.968 524.689 459.48 522.385 459.48C520.305 459.48 518.001 459.064 516.017 457.112C514.449 455.576 513.809 453.752 513.809 451.832C513.809 449.272 514.961 447.608 516.017 446.584C517.201 445.432 519.281 444.216 522.385 444.216C525.553 444.216 527.601 445.464 528.785 446.584C529.841 447.608 530.993 449.272 530.993 451.832ZM539.068 457.624V466.328H533.948V444.696H539.068V446.264C539.964 445.144 541.34 444.216 543.452 444.216C545.66 444.216 547.388 445.144 548.54 446.296C549.724 447.48 550.716 449.368 550.716 451.832C550.716 454.232 549.788 456.152 548.412 457.496C546.812 459.064 544.956 459.48 543.516 459.48C542.588 459.48 540.668 459.288 539.068 457.624ZM542.204 448.568C541.34 448.568 540.508 448.92 539.9 449.528C539.26 450.168 538.908 451.096 538.908 451.896C538.908 452.728 539.356 453.624 539.9 454.168C540.508 454.776 541.34 455.128 542.204 455.128C543.1 455.128 543.9 454.776 544.476 454.168C545.02 453.624 545.468 452.76 545.468 451.896C545.468 451.096 545.116 450.168 544.476 449.528C543.9 448.92 543.1 448.568 542.204 448.568ZM553.666 444.696H558.786V452.696C558.786 453.272 558.882 454.168 559.554 454.776C560.066 455.224 560.738 455.32 561.346 455.32C561.986 455.32 562.594 455.256 563.17 454.712C563.81 454.072 563.906 453.336 563.906 452.696V444.696H569.026V453.624C569.026 454.84 568.93 456.152 567.65 457.464C565.89 459.288 563.426 459.48 561.474 459.48C559.33 459.48 556.706 459.256 555.01 457.432C553.922 456.28 553.666 455 553.666 453.624V444.696ZM572.541 435.672H577.661V459H572.541V435.672ZM592.207 446.072V444.696H597.327V459H592.207V457.432C591.023 459.064 589.167 459.48 587.759 459.48C586.223 459.48 584.335 459.032 582.607 457.208C581.231 455.736 580.559 454.104 580.559 451.96C580.559 449.272 581.615 447.384 582.767 446.232C583.983 445.016 585.871 444.216 587.919 444.216C590.223 444.216 591.599 445.4 592.207 446.072ZM589.071 448.568C588.431 448.568 587.567 448.792 586.831 449.496C586.127 450.168 585.807 451.096 585.807 451.832C585.807 452.664 586.159 453.56 586.799 454.168C587.343 454.68 588.239 455.128 589.103 455.128C589.935 455.128 590.767 454.776 591.407 454.136C591.855 453.688 592.367 452.984 592.367 451.832C592.367 451.16 592.175 450.264 591.375 449.496C590.895 449.048 590.159 448.568 589.071 448.568ZM600.854 459V444.696H605.974V447.032C606.486 446.072 607.222 445.432 607.99 445.048C608.758 444.632 609.686 444.472 610.646 444.472C610.774 444.472 610.998 444.504 611.67 444.536V449.368C611.414 449.24 610.71 448.856 609.462 448.856C608.79 448.856 607.862 448.952 607.126 449.624C606.038 450.616 605.974 452.12 605.974 452.888V459H600.854ZM626.536 457.624V466.328H621.416V444.696H626.536V446.264C627.432 445.144 628.808 444.216 630.92 444.216C633.128 444.216 634.856 445.144 636.008 446.296C637.192 447.48 638.184 449.368 638.184 451.832C638.184 454.232 637.256 456.152 635.88 457.496C634.28 459.064 632.424 459.48 630.984 459.48C630.056 459.48 628.136 459.288 626.536 457.624ZM629.672 448.568C628.808 448.568 627.976 448.92 627.368 449.528C626.728 450.168 626.376 451.096 626.376 451.896C626.376 452.728 626.824 453.624 627.368 454.168C627.976 454.776 628.808 455.128 629.672 455.128C630.568 455.128 631.368 454.776 631.944 454.168C632.488 453.624 632.936 452.76 632.936 451.896C632.936 451.096 632.584 450.168 631.944 449.528C631.368 448.92 630.568 448.568 629.672 448.568ZM641.135 444.696H646.255V459H641.135V444.696ZM640.815 438.744C640.815 437.144 642.095 435.864 643.695 435.864C645.295 435.864 646.575 437.144 646.575 438.744C646.575 440.344 645.295 441.624 643.695 441.624C642.095 441.624 640.815 440.344 640.815 438.744ZM660.545 454.392V458.68C659.169 459.352 658.049 459.48 656.993 459.48C654.209 459.48 652.385 458.296 651.361 457.304C650.017 455.992 649.153 454.072 649.153 451.96C649.153 449.848 650.017 447.832 651.457 446.424C652.801 445.144 654.785 444.248 657.217 444.248C658.113 444.248 659.265 444.408 660.545 445.048V449.336C659.873 448.856 658.977 448.408 657.889 448.408C656.673 448.408 655.905 448.888 655.393 449.4C654.689 450.104 654.401 451.032 654.401 451.864C654.401 452.664 654.689 453.592 655.297 454.264C655.777 454.776 656.609 455.352 657.921 455.352C658.657 455.352 659.617 455.192 660.545 454.392ZM663.448 435.672H668.568V449.848L673.4 444.696H680.344L673.592 451.288L680.888 459H673.784L668.568 453.144V459H663.448V435.672ZM681.364 457.816L683.188 454.264C683.796 454.712 684.532 455.096 685.236 455.32C685.876 455.544 686.676 455.672 687.22 455.672C687.604 455.672 688.212 455.576 688.532 455.288C688.756 455.064 688.788 454.872 688.788 454.616C688.788 454.392 688.756 454.168 688.532 453.976C688.212 453.688 687.7 453.592 687.188 453.464L685.844 453.144C685.14 452.984 684.116 452.728 683.348 451.896C682.804 451.32 682.42 450.52 682.42 449.432C682.42 448.056 682.964 446.776 683.764 445.944C684.852 444.824 686.772 444.216 688.884 444.216C690.996 444.216 692.628 444.792 693.46 445.144L691.732 448.408C691.028 448.088 689.972 447.704 689.044 447.704C688.532 447.704 688.18 447.8 687.86 447.992C687.572 448.152 687.412 448.376 687.412 448.696C687.412 449.144 687.7 449.368 688.02 449.496C688.5 449.688 688.916 449.688 689.716 449.912L690.644 450.168C691.316 450.36 692.34 450.872 692.756 451.288C693.46 451.96 693.844 453.08 693.844 454.136C693.844 455.864 693.108 457.016 692.404 457.688C690.74 459.352 688.308 459.48 687.124 459.48C685.844 459.48 683.828 459.32 681.364 457.816Z" fill="#03010C"/>
<path d="M722.474 62.656H728.01V79.296H734.666V84H722.474V62.656ZM745.058 73.568C744.226 73.568 743.33 73.952 742.754 74.496C742.114 75.104 741.762 76 741.762 76.832C741.762 77.696 742.178 78.528 742.754 79.104C743.362 79.712 744.194 80.064 745.058 80.064C745.89 80.064 746.722 79.712 747.33 79.104C747.97 78.496 748.322 77.664 748.322 76.832C748.322 76.064 747.97 75.136 747.33 74.496C746.754 73.952 745.858 73.568 745.058 73.568ZM753.634 76.832C753.634 78.752 752.994 80.576 751.426 82.112C749.538 83.968 747.33 84.48 745.026 84.48C742.946 84.48 740.642 84.064 738.658 82.112C737.09 80.576 736.45 78.752 736.45 76.832C736.45 74.272 737.602 72.608 738.658 71.584C739.842 70.432 741.922 69.216 745.026 69.216C748.194 69.216 750.242 70.464 751.426 71.584C752.482 72.608 753.634 74.272 753.634 76.832ZM767.564 69.696H772.684V83.104C772.684 85.248 772.492 87.2 770.732 89.024C768.908 90.88 766.508 91.328 764.428 91.328C761.772 91.328 759.564 90.656 757.74 88.8C756.908 87.936 756.364 87.072 756.172 85.824H761.868C762.06 86.4 762.572 87.296 764.268 87.296C765.068 87.296 765.868 87.136 766.54 86.496C767.404 85.696 767.564 84.672 767.564 83.84V82.4C765.964 84.096 764.428 84.288 763.276 84.288C760.652 84.288 758.956 83.264 757.996 82.272C756.716 80.96 756.012 79.008 756.012 77.056C756.012 74.816 756.876 72.768 758.124 71.456C759.5 70.016 761.42 69.28 763.308 69.28C764.204 69.28 766.06 69.472 767.564 71.168V69.696ZM764.524 73.536C763.66 73.536 762.924 73.824 762.252 74.496C761.516 75.264 761.26 76.128 761.26 76.8C761.26 77.632 761.612 78.496 762.252 79.136C762.924 79.808 763.788 80.064 764.556 80.064C765.356 80.064 766.252 79.712 766.86 79.104C767.5 78.464 767.82 77.536 767.82 76.8C767.82 76.064 767.404 75.072 766.796 74.464C766.22 73.888 765.388 73.536 764.524 73.536ZM776.213 69.696H781.333V84H776.213V69.696ZM775.893 63.744C775.893 62.144 777.173 60.864 778.773 60.864C780.373 60.864 781.653 62.144 781.653 63.744C781.653 65.344 780.373 66.624 778.773 66.624C777.173 66.624 775.893 65.344 775.893 63.744ZM784.807 84V69.696H789.927V71.488C791.335 69.632 793.223 69.376 794.471 69.376C795.943 69.376 797.511 69.728 798.695 70.912C799.911 72.128 800.039 73.344 800.039 74.912V84H794.919V76.768C794.919 75.936 794.951 74.688 794.279 73.984C793.799 73.472 793.159 73.376 792.647 73.376C791.847 73.376 791.175 73.664 790.759 74.048C790.247 74.528 789.927 75.456 789.927 76.32V84H784.807Z" fill="#03010C"/>
<rect x="447.5" y="115.5" width="392" height="252" fill="#D9D9D9"/>
<rect x="447.5" y="115.5" width="392" height="252" stroke="black"/>
<path d="M717.75 306.375H568.25C558.723 306.375 551 299.114 551 290.156V192.844C551 183.886 558.723 176.625 568.25 176.625H717.75C727.277 176.625 735 183.886 735 192.844V290.156C735 299.114 727.277 306.375 717.75 306.375ZM591.25 195.547C580.135 195.547 571.125 204.018 571.125 214.469C571.125 224.919 580.135 233.391 591.25 233.391C602.365 233.391 611.375 224.919 611.375 214.469C611.375 204.018 602.365 195.547 591.25 195.547ZM574 284.75H712V246.906L680.549 217.336C678.865 215.752 676.135 215.752 674.45 217.336L625.75 263.125L605.799 244.367C604.115 242.784 601.385 242.784 599.7 244.367L574 268.531V284.75Z" fill="#CBCBCB"/>
<rect x="460.5" y="503.5" width="105" height="229" fill="#D9D9D9"/>
<rect x="460.5" y="503.5" width="105" height="229" stroke="black"/>
<path d="M539.094 639.625H487.906C484.644 639.625 482 637.149 482 634.094V600.906C482 597.851 484.644 595.375 487.906 595.375H539.094C542.356 595.375 545 597.851 545 600.906V634.094C545 637.149 542.356 639.625 539.094 639.625ZM495.781 601.828C491.976 601.828 488.891 604.717 488.891 608.281C488.891 611.845 491.976 614.734 495.781 614.734C499.587 614.734 502.672 611.845 502.672 608.281C502.672 604.717 499.587 601.828 495.781 601.828ZM489.875 632.25H537.125V619.344L526.357 609.259C525.78 608.719 524.845 608.719 524.268 609.259L507.594 624.875L500.763 618.478C500.186 617.938 499.251 617.938 498.675 618.478L489.875 626.719V632.25Z" fill="#CBCBCB"/>
<rect x="590.5" y="503.5" width="105" height="229" fill="#D9D9D9"/>
<rect x="590.5" y="503.5" width="105" height="229" stroke="black"/>
<path d="M669.094 639.625H617.906C614.644 639.625 612 637.149 612 634.094V600.906C612 597.851 614.644 595.375 617.906 595.375H669.094C672.356 595.375 675 597.851 675 600.906V634.094C675 637.149 672.356 639.625 669.094 639.625ZM625.781 601.828C621.976 601.828 618.891 604.717 618.891 608.281C618.891 611.845 621.976 614.734 625.781 614.734C629.587 614.734 632.672 611.845 632.672 608.281C632.672 604.717 629.587 601.828 625.781 601.828ZM619.875 632.25H667.125V619.344L656.357 609.259C655.78 608.719 654.845 608.719 654.268 609.259L637.594 624.875L630.763 618.478C630.186 617.938 629.251 617.938 628.675 618.478L619.875 626.719V632.25Z" fill="#CBCBCB"/>
<rect x="720.5" y="503.5" width="105" height="229" fill="#D9D9D9"/>
<rect x="720.5" y="503.5" width="105" height="229" stroke="black"/>
<path d="M799.094 639.625H747.906C744.644 639.625 742 637.149 742 634.094V600.906C742 597.851 744.644 595.375 747.906 595.375H799.094C802.356 595.375 805 597.851 805 600.906V634.094C805 637.149 802.356 639.625 799.094 639.625ZM755.781 601.828C751.976 601.828 748.891 604.717 748.891 608.281C748.891 611.845 751.976 614.734 755.781 614.734C759.587 614.734 762.672 611.845 762.672 608.281C762.672 604.717 759.587 601.828 755.781 601.828ZM749.875 632.25H797.125V619.344L786.357 609.259C785.78 608.719 784.845 608.719 784.268 609.259L767.594 624.875L760.763 618.478C760.186 617.938 759.251 617.938 758.675 618.478L749.875 626.719V632.25Z" fill="#CBCBCB"/>
<rect width="393" height="60" transform="translate(447 818)" fill="#F2F6FF"/>
<path d="M566 828.625C567.077 828.625 568.111 829.053 568.873 829.815C569.634 830.577 570.062 831.61 570.062 832.688V833.5H561.938V832.688C561.938 831.61 562.366 830.577 563.127 829.815C563.889 829.053 564.923 828.625 566 828.625ZM571.688 833.5V832.688C571.688 831.179 571.088 829.732 570.022 828.666C568.955 827.599 567.508 827 566 827C564.492 827 563.045 827.599 561.978 828.666C560.912 829.732 560.312 831.179 560.312 832.688V833.5H554.625V849.75C554.625 850.612 554.967 851.439 555.577 852.048C556.186 852.658 557.013 853 557.875 853H574.125C574.987 853 575.814 852.658 576.423 852.048C577.033 851.439 577.375 850.612 577.375 849.75V833.5H571.688ZM556.25 835.125H575.75V849.75C575.75 850.181 575.579 850.594 575.274 850.899C574.969 851.204 574.556 851.375 574.125 851.375H557.875C557.444 851.375 557.031 851.204 556.726 850.899C556.421 850.594 556.25 850.181 556.25 849.75V835.125Z" fill="#03010C"/>
<path fill-rule="evenodd" clip-rule="evenodd" d="M787 827.5C788.642 827.5 790.267 827.823 791.784 828.451C793.3 829.08 794.678 830 795.839 831.161C797 832.322 797.92 833.7 798.549 835.216C799.177 836.733 799.5 838.358 799.5 840C799.5 846.904 793.904 852.5 787 852.5C780.096 852.5 774.5 846.904 774.5 840C774.5 833.096 780.096 827.5 787 827.5ZM788.25 841.25H785.75C782.655 841.25 779.999 843.124 778.853 845.8C780.666 848.342 783.639 850 787 850C790.361 850 793.334 848.342 795.147 845.8C794.001 843.124 791.345 841.25 788.25 841.25ZM787 831.25C784.929 831.25 783.25 832.929 783.25 835C783.25 837.071 784.929 838.75 787 838.75C789.071 838.75 790.75 837.071 790.75 835C790.75 832.929 789.071 831.25 787 831.25Z" fill="#03010C"/>
<g clip-path="url(#clip1_40000073_2036)">
<path d="M496.31 830.5C495.013 830.5 493.735 830.813 492.585 831.412C491.435 832.012 490.446 832.88 489.703 833.943C488.96 835.006 488.485 836.233 488.317 837.519C488.15 838.805 488.295 840.112 488.741 841.33C489.187 842.548 489.92 843.64 490.878 844.515C491.836 845.389 492.991 846.018 494.245 846.351C495.499 846.683 496.814 846.708 498.079 846.423C499.345 846.138 500.523 845.553 501.513 844.715C501.489 845.009 501.589 845.311 501.814 845.535L505.974 849.695C506.169 849.89 510.224 853 510.5 853C510.776 853 510.805 853.195 511 853C511.195 852.805 511 852.776 511 852.5C511 852.224 507.641 848.419 507.446 848.224L503.286 844.064C503.179 843.957 503.05 843.875 502.909 843.823C502.767 843.771 502.616 843.751 502.465 843.763C503.458 842.589 504.093 841.157 504.298 839.634C504.503 838.11 504.268 836.561 503.621 835.167C502.974 833.773 501.942 832.593 500.647 831.766C499.351 830.939 497.847 830.5 496.31 830.5ZM489.81 838.56C489.81 837.706 489.978 836.861 490.305 836.072C490.631 835.284 491.11 834.567 491.714 833.964C492.317 833.36 493.034 832.881 493.822 832.555C494.611 832.228 495.456 832.06 496.31 832.06C497.164 832.06 498.009 832.228 498.797 832.555C499.586 832.881 500.303 833.36 500.906 833.964C501.51 834.567 501.988 835.284 502.315 836.072C502.642 836.861 502.81 837.706 502.81 838.56C502.81 840.284 502.125 841.937 500.906 843.156C499.687 844.375 498.034 845.06 496.31 845.06C494.586 845.06 492.933 844.375 491.714 843.156C490.495 841.937 489.81 840.284 489.81 838.56Z" fill="#03010C"/>
</g>
<path d="M707.246 828.921C707.703 828.921 708.153 829.041 708.55 829.268C708.947 829.495 709.277 829.822 709.509 830.216L710.459 831.834H712.875C713.88 831.834 714.845 832.234 715.556 832.945C716.267 833.655 716.666 834.62 716.667 835.625V846.708C716.667 847.206 716.569 847.699 716.378 848.159C716.187 848.619 715.908 849.037 715.556 849.389C715.204 849.742 714.786 850.021 714.326 850.211C713.866 850.402 713.373 850.5 712.875 850.5H697.125C696.119 850.5 695.155 850.101 694.444 849.389C693.733 848.678 693.333 847.714 693.333 846.708V835.625C693.333 834.619 693.733 833.655 694.444 832.944C695.155 832.233 696.119 831.833 697.125 831.833H699.552L700.572 830.172C700.807 829.79 701.136 829.474 701.528 829.255C701.919 829.035 702.36 828.92 702.809 828.92L707.246 828.921ZM707.246 830.671H702.809C702.681 830.671 702.555 830.699 702.44 830.753C702.324 830.808 702.221 830.886 702.139 830.984L702.063 831.089L700.788 833.166C700.71 833.293 700.601 833.399 700.47 833.472C700.34 833.545 700.192 833.583 700.043 833.583H697.126C696.858 833.583 696.592 833.636 696.344 833.738C696.097 833.841 695.871 833.991 695.682 834.181C695.492 834.371 695.342 834.596 695.239 834.843C695.136 835.091 695.083 835.357 695.083 835.625V846.708C695.083 847.835 695.998 848.75 697.125 848.75H712.875C713.416 848.75 713.936 848.535 714.319 848.152C714.702 847.769 714.917 847.25 714.917 846.708V835.625C714.917 835.084 714.702 834.564 714.319 834.181C713.936 833.798 713.416 833.583 712.875 833.583H709.958C709.806 833.583 709.656 833.544 709.523 833.468C709.391 833.392 709.281 833.283 709.203 833.152L707.999 831.102C707.922 830.971 707.812 830.862 707.68 830.786C707.548 830.71 707.398 830.67 707.246 830.67M705 835.333C706.392 835.333 707.728 835.886 708.712 836.871C709.697 837.856 710.25 839.191 710.25 840.583C710.25 841.976 709.697 843.311 708.712 844.296C707.728 845.28 706.392 845.833 705 845.833C703.608 845.833 702.272 845.28 701.288 844.296C700.303 843.311 699.75 841.976 699.75 840.583C699.75 839.191 700.303 837.856 701.288 836.871C702.272 835.886 703.608 835.333 705 835.333ZM705 837.083C704.54 837.083 704.085 837.174 703.661 837.35C703.236 837.526 702.85 837.783 702.525 838.108C702.2 838.433 701.942 838.819 701.766 839.244C701.591 839.669 701.5 840.124 701.5 840.583C701.5 841.043 701.591 841.498 701.766 841.923C701.942 842.347 702.2 842.733 702.525 843.058C702.85 843.383 703.236 843.641 703.661 843.817C704.085 843.993 704.54 844.083 705 844.083C705.928 844.083 706.818 843.715 707.475 843.058C708.131 842.402 708.5 841.512 708.5 840.583C708.5 839.655 708.131 838.765 707.475 838.108C706.818 837.452 705.928 837.083 705 837.083Z" fill="#03010C"/>
<path d="M623.083 840.712C623.083 838.328 623.083 837.136 623.625 836.149C624.165 835.16 625.153 834.548 627.129 833.321L629.212 832.028C631.301 830.731 632.346 830.083 633.5 830.083C634.654 830.083 635.698 830.731 637.787 832.028L639.871 833.321C641.847 834.548 642.835 835.16 643.376 836.149C643.917 837.137 643.917 838.328 643.917 840.711V842.297C643.917 846.359 643.917 848.392 642.696 849.654C641.475 850.917 639.511 850.917 635.583 850.917H631.417C627.489 850.917 625.524 850.917 624.304 849.654C623.084 848.392 623.083 846.36 623.083 842.297V840.712Z" stroke="#03010C" stroke-width="1.5625"/>
<path d="M630.375 844.667C631.26 845.323 632.339 845.708 633.5 845.708C634.661 845.708 635.74 845.323 636.625 844.667" stroke="#03010C" stroke-width="1.5625" stroke-linecap="round"/>
<path d="M468 819H530" stroke="#03010C" stroke-width="2"/>
<rect x="881" y="21" width="391" height="856" fill="#F2F6FF"/>
<rect x="881" y="21" width="391" height="856" stroke="black" stroke-width="2"/>
<path d="M934.359 84V73.76L926.647 62.656H933.271L937.303 68.48L941.175 62.656H947.895L939.927 73.76V84H934.359ZM954.573 73.568C953.741 73.568 952.845 73.952 952.269 74.496C951.629 75.104 951.277 76 951.277 76.832C951.277 77.696 951.693 78.528 952.269 79.104C952.877 79.712 953.709 80.064 954.573 80.064C955.405 80.064 956.237 79.712 956.845 79.104C957.485 78.496 957.837 77.664 957.837 76.832C957.837 76.064 957.485 75.136 956.845 74.496C956.269 73.952 955.373 73.568 954.573 73.568ZM963.149 76.832C963.149 78.752 962.509 80.576 960.941 82.112C959.053 83.968 956.845 84.48 954.541 84.48C952.461 84.48 950.157 84.064 948.173 82.112C946.605 80.576 945.965 78.752 945.965 76.832C945.965 74.272 947.117 72.608 948.173 71.584C949.357 70.432 951.437 69.216 954.541 69.216C957.709 69.216 959.757 70.464 960.941 71.584C961.997 72.608 963.149 74.272 963.149 76.832ZM966.104 69.696H971.224V77.696C971.224 78.272 971.32 79.168 971.992 79.776C972.504 80.224 973.176 80.32 973.784 80.32C974.424 80.32 975.032 80.256 975.608 79.712C976.248 79.072 976.344 78.336 976.344 77.696V69.696H981.464V78.624C981.464 79.84 981.368 81.152 980.088 82.464C978.328 84.288 975.864 84.48 973.912 84.48C971.768 84.48 969.144 84.256 967.448 82.432C966.36 81.28 966.104 80 966.104 78.624V69.696ZM984.979 84V69.696H990.099V72.032C990.611 71.072 991.347 70.432 992.115 70.048C992.883 69.632 993.811 69.472 994.771 69.472C994.899 69.472 995.123 69.504 995.795 69.536V74.368C995.539 74.24 994.835 73.856 993.587 73.856C992.915 73.856 991.987 73.952 991.251 74.624C990.163 75.616 990.099 77.12 990.099 77.888V84H984.979ZM1014.63 73.888H1011.05V84H1005.93V73.888H1004.13V69.696H1005.93V67.936C1005.93 66.016 1006.18 63.968 1007.88 62.336C1009.25 60.992 1011.37 60.32 1013.51 60.32C1015.53 60.32 1017.89 60.928 1019.24 62.24C1020.13 63.104 1021.03 64.672 1021.03 67.04V67.776H1015.91V67.296C1015.91 67.168 1015.91 66.016 1015.27 65.376C1014.85 64.96 1014.15 64.736 1013.48 64.736C1012.84 64.736 1012.17 64.992 1011.72 65.472C1011.11 66.112 1011.05 66.88 1011.05 67.68V69.696H1014.63V73.888ZM1015.91 69.696H1021.03V84H1015.91V69.696ZM1032.8 73.888H1029.89V84H1024.77V73.888H1023.14V69.696H1024.77V64.992H1029.89V69.696H1032.8V73.888Z" fill="#03010C"/>
<path d="M927.312 167.656H933.105L936.817 181.448L941.329 167.656H945.745L949.937 181.448L953.969 167.656H959.761L952.945 189H947.281L943.409 176.648L939.313 189H933.681L927.312 167.656ZM975.459 182.248V182.792H964.803C964.803 183.56 965.091 184.584 965.699 185.192C966.019 185.512 966.659 185.896 967.811 185.896C967.939 185.896 968.835 185.864 969.475 185.512C969.795 185.32 970.147 185 970.371 184.552H975.267C975.043 185.352 974.595 186.472 973.539 187.496C972.483 188.52 970.819 189.48 967.715 189.48C965.827 189.48 963.555 189.064 961.795 187.304C960.867 186.376 959.683 184.616 959.683 181.896C959.683 179.496 960.579 177.576 961.827 176.36C963.011 175.208 964.867 174.28 967.683 174.28C969.347 174.28 971.491 174.632 973.187 176.232C975.203 178.152 975.459 180.648 975.459 182.248ZM964.963 179.848H970.755C970.627 179.304 970.307 178.696 969.923 178.312C969.251 177.64 968.323 177.544 967.811 177.544C966.947 177.544 966.275 177.768 965.731 178.312C965.379 178.696 965.059 179.208 964.963 179.848ZM978.416 165.672H983.536V189H978.416V165.672ZM997.826 184.392V188.68C996.45 189.352 995.33 189.48 994.274 189.48C991.49 189.48 989.666 188.296 988.642 187.304C987.298 185.992 986.434 184.072 986.434 181.96C986.434 179.848 987.298 177.832 988.738 176.424C990.082 175.144 992.066 174.248 994.498 174.248C995.394 174.248 996.546 174.408 997.826 175.048V179.336C997.154 178.856 996.258 178.408 995.17 178.408C993.954 178.408 993.186 178.888 992.674 179.4C991.97 180.104 991.682 181.032 991.682 181.864C991.682 182.664 991.97 183.592 992.578 184.264C993.058 184.776 993.89 185.352 995.202 185.352C995.938 185.352 996.898 185.192 997.826 184.392ZM1008.76 178.568C1007.93 178.568 1007.03 178.952 1006.46 179.496C1005.82 180.104 1005.46 181 1005.46 181.832C1005.46 182.696 1005.88 183.528 1006.46 184.104C1007.06 184.712 1007.9 185.064 1008.76 185.064C1009.59 185.064 1010.42 184.712 1011.03 184.104C1011.67 183.496 1012.02 182.664 1012.02 181.832C1012.02 181.064 1011.67 180.136 1011.03 179.496C1010.46 178.952 1009.56 178.568 1008.76 178.568ZM1017.34 181.832C1017.34 183.752 1016.7 185.576 1015.13 187.112C1013.24 188.968 1011.03 189.48 1008.73 189.48C1006.65 189.48 1004.34 189.064 1002.36 187.112C1000.79 185.576 1000.15 183.752 1000.15 181.832C1000.15 179.272 1001.3 177.608 1002.36 176.584C1003.54 175.432 1005.62 174.216 1008.73 174.216C1011.9 174.216 1013.94 175.464 1015.13 176.584C1016.18 177.608 1017.34 179.272 1017.34 181.832ZM1020.29 189V174.696H1025.41V176.424C1026.63 174.952 1028.29 174.44 1029.7 174.44C1030.72 174.44 1031.68 174.664 1032.45 175.08C1033.51 175.624 1034.08 176.424 1034.44 177.128C1035.01 176.104 1035.75 175.496 1036.39 175.144C1037.41 174.568 1038.4 174.44 1039.36 174.44C1040.42 174.44 1042.15 174.6 1043.33 175.752C1044.61 177 1044.68 178.696 1044.68 179.688V189H1039.56V181.928C1039.56 180.424 1039.4 179.4 1038.82 178.856C1038.53 178.6 1038.15 178.376 1037.48 178.376C1036.9 178.376 1036.42 178.536 1035.97 178.952C1035.11 179.784 1035.04 180.968 1035.04 181.672V189H1029.92V181.928C1029.92 180.552 1029.83 179.464 1029.25 178.856C1028.8 178.376 1028.23 178.28 1027.72 178.28C1027.17 178.28 1026.72 178.376 1026.31 178.792C1025.41 179.656 1025.41 181.032 1025.41 181.928V189H1020.29ZM1063.4 182.248V182.792H1052.74C1052.74 183.56 1053.03 184.584 1053.64 185.192C1053.96 185.512 1054.6 185.896 1055.75 185.896C1055.88 185.896 1056.77 185.864 1057.41 185.512C1057.73 185.32 1058.08 185 1058.31 184.552H1063.2C1062.98 185.352 1062.53 186.472 1061.48 187.496C1060.42 188.52 1058.76 189.48 1055.65 189.48C1053.76 189.48 1051.49 189.064 1049.73 187.304C1048.8 186.376 1047.62 184.616 1047.62 181.896C1047.62 179.496 1048.52 177.576 1049.76 176.36C1050.95 175.208 1052.8 174.28 1055.62 174.28C1057.28 174.28 1059.43 174.632 1061.12 176.232C1063.14 178.152 1063.4 180.648 1063.4 182.248ZM1052.9 179.848H1058.69C1058.56 179.304 1058.24 178.696 1057.86 178.312C1057.19 177.64 1056.26 177.544 1055.75 177.544C1054.88 177.544 1054.21 177.768 1053.67 178.312C1053.32 178.696 1053 179.208 1052.9 179.848ZM1064.31 193.768L1068.31 183.656H1073.11L1067.6 193.768H1064.31ZM1099.74 167.656V172.36H1093.15V175.912H1099.39V180.616H1093.15V184.296H1099.74V189H1087.62V167.656H1099.74ZM1102.79 189V174.696H1107.91V176.424C1109.13 174.952 1110.79 174.44 1112.2 174.44C1113.22 174.44 1114.18 174.664 1114.95 175.08C1116.01 175.624 1116.58 176.424 1116.94 177.128C1117.51 176.104 1118.25 175.496 1118.89 175.144C1119.91 174.568 1120.9 174.44 1121.86 174.44C1122.92 174.44 1124.65 174.6 1125.83 175.752C1127.11 177 1127.18 178.696 1127.18 179.688V189H1122.06V181.928C1122.06 180.424 1121.9 179.4 1121.32 178.856C1121.03 178.6 1120.65 178.376 1119.98 178.376C1119.4 178.376 1118.92 178.536 1118.47 178.952C1117.61 179.784 1117.54 180.968 1117.54 181.672V189H1112.42V181.928C1112.42 180.552 1112.33 179.464 1111.75 178.856C1111.3 178.376 1110.73 178.28 1110.22 178.28C1109.67 178.28 1109.22 178.376 1108.81 178.792C1107.91 179.656 1107.91 181.032 1107.91 181.928V189H1102.79ZM1141.8 176.072V174.696H1146.92V189H1141.8V187.432C1140.62 189.064 1138.76 189.48 1137.35 189.48C1135.82 189.48 1133.93 189.032 1132.2 187.208C1130.82 185.736 1130.15 184.104 1130.15 181.96C1130.15 179.272 1131.21 177.384 1132.36 176.232C1133.58 175.016 1135.46 174.216 1137.51 174.216C1139.82 174.216 1141.19 175.4 1141.8 176.072ZM1138.66 178.568C1138.02 178.568 1137.16 178.792 1136.42 179.496C1135.72 180.168 1135.4 181.096 1135.4 181.832C1135.4 182.664 1135.75 183.56 1136.39 184.168C1136.94 184.68 1137.83 185.128 1138.7 185.128C1139.53 185.128 1140.36 184.776 1141 184.136C1141.45 183.688 1141.96 182.984 1141.96 181.832C1141.96 181.16 1141.77 180.264 1140.97 179.496C1140.49 179.048 1139.75 178.568 1138.66 178.568Z" fill="#03010C"/>
<path d="M932.266 246H928.806V232.66H932.266L938.646 240.82V232.66H942.106V246H938.646L932.266 237.84V246ZM954.08 241.78V242.12H947.42C947.42 242.6 947.6 243.24 947.98 243.62C948.18 243.82 948.58 244.06 949.3 244.06C949.38 244.06 949.94 244.04 950.34 243.82C950.54 243.7 950.76 243.5 950.9 243.22H953.96C953.82 243.72 953.54 244.42 952.88 245.06C952.22 245.7 951.18 246.3 949.24 246.3C948.06 246.3 946.64 246.04 945.54 244.94C944.96 244.36 944.22 243.26 944.22 241.56C944.22 240.06 944.78 238.86 945.56 238.1C946.3 237.38 947.46 236.8 949.22 236.8C950.26 236.8 951.6 237.02 952.66 238.02C953.92 239.22 954.08 240.78 954.08 241.78ZM947.52 240.28H951.14C951.06 239.94 950.86 239.56 950.62 239.32C950.2 238.9 949.62 238.84 949.3 238.84C948.76 238.84 948.34 238.98 948 239.32C947.78 239.56 947.58 239.88 947.52 240.28ZM954.828 237.06H958.408L960.528 241.78L962.788 237.06H964.748L967.008 241.92L969.248 237.06H972.808L968.128 246H965.968L963.728 241.08L961.588 246H959.428L954.828 237.06ZM985.504 237.92V237.06H988.704V246H985.504V245.02C984.764 246.04 983.604 246.3 982.724 246.3C981.764 246.3 980.584 246.02 979.504 244.88C978.644 243.96 978.224 242.94 978.224 241.6C978.224 239.92 978.884 238.74 979.604 238.02C980.364 237.26 981.544 236.76 982.824 236.76C984.264 236.76 985.124 237.5 985.504 237.92ZM983.544 239.48C983.144 239.48 982.604 239.62 982.144 240.06C981.704 240.48 981.504 241.06 981.504 241.52C981.504 242.04 981.724 242.6 982.124 242.98C982.464 243.3 983.024 243.58 983.564 243.58C984.084 243.58 984.604 243.36 985.004 242.96C985.284 242.68 985.604 242.24 985.604 241.52C985.604 241.1 985.484 240.54 984.984 240.06C984.684 239.78 984.224 239.48 983.544 239.48ZM990.909 246V237.06H994.109V238.52C994.429 237.92 994.889 237.52 995.369 237.28C995.849 237.02 996.429 236.92 997.029 236.92C997.109 236.92 997.249 236.94 997.669 236.96V239.98C997.509 239.9 997.069 239.66 996.289 239.66C995.869 239.66 995.289 239.72 994.829 240.14C994.149 240.76 994.109 241.7 994.109 242.18V246H990.909ZM999.092 246V237.06H1002.29V238.52C1002.61 237.92 1003.07 237.52 1003.55 237.28C1004.03 237.02 1004.61 236.92 1005.21 236.92C1005.29 236.92 1005.43 236.94 1005.85 236.96V239.98C1005.69 239.9 1005.25 239.66 1004.47 239.66C1004.05 239.66 1003.47 239.72 1003.01 240.14C1002.33 240.76 1002.29 241.7 1002.29 242.18V246H999.092ZM1007.28 237.06H1010.48V246H1007.28V237.06ZM1007.08 233.34C1007.08 232.34 1007.88 231.54 1008.88 231.54C1009.88 231.54 1010.68 232.34 1010.68 233.34C1010.68 234.34 1009.88 235.14 1008.88 235.14C1007.88 235.14 1007.08 234.34 1007.08 233.34ZM1011.55 237.06H1015.13L1017.27 241.64L1019.45 237.06H1023.01L1018.35 246H1016.17L1011.55 237.06ZM1031.03 237.92V237.06H1034.23V246H1031.03V245.02C1030.29 246.04 1029.13 246.3 1028.25 246.3C1027.29 246.3 1026.11 246.02 1025.03 244.88C1024.17 243.96 1023.75 242.94 1023.75 241.6C1023.75 239.92 1024.41 238.74 1025.13 238.02C1025.89 237.26 1027.07 236.76 1028.35 236.76C1029.79 236.76 1030.65 237.5 1031.03 237.92ZM1029.07 239.48C1028.67 239.48 1028.13 239.62 1027.67 240.06C1027.23 240.48 1027.03 241.06 1027.03 241.52C1027.03 242.04 1027.25 242.6 1027.65 242.98C1027.99 243.3 1028.55 243.58 1029.09 243.58C1029.61 243.58 1030.13 243.36 1030.53 242.96C1030.81 242.68 1031.13 242.24 1031.13 241.52C1031.13 241.1 1031.01 240.54 1030.51 240.06C1030.21 239.78 1029.75 239.48 1029.07 239.48ZM1036.44 231.42H1039.64V246H1036.44V231.42ZM1041.25 245.26L1042.39 243.04C1042.77 243.32 1043.23 243.56 1043.67 243.7C1044.07 243.84 1044.57 243.92 1044.91 243.92C1045.15 243.92 1045.53 243.86 1045.73 243.68C1045.87 243.54 1045.89 243.42 1045.89 243.26C1045.89 243.12 1045.87 242.98 1045.73 242.86C1045.53 242.68 1045.21 242.62 1044.89 242.54L1044.05 242.34C1043.61 242.24 1042.97 242.08 1042.49 241.56C1042.15 241.2 1041.91 240.7 1041.91 240.02C1041.91 239.16 1042.25 238.36 1042.75 237.84C1043.43 237.14 1044.63 236.76 1045.95 236.76C1047.27 236.76 1048.29 237.12 1048.81 237.34L1047.73 239.38C1047.29 239.18 1046.63 238.94 1046.05 238.94C1045.73 238.94 1045.51 239 1045.31 239.12C1045.13 239.22 1045.03 239.36 1045.03 239.56C1045.03 239.84 1045.21 239.98 1045.41 240.06C1045.71 240.18 1045.97 240.18 1046.47 240.32L1047.05 240.48C1047.47 240.6 1048.11 240.92 1048.37 241.18C1048.81 241.6 1049.05 242.3 1049.05 242.96C1049.05 244.04 1048.59 244.76 1048.15 245.18C1047.11 246.22 1045.59 246.3 1044.85 246.3C1044.05 246.3 1042.79 246.2 1041.25 245.26Z" fill="#03010C"/>
<path d="M1155.47 62.656H1161.01V79.296H1167.67V84H1155.47V62.656ZM1178.06 73.568C1177.23 73.568 1176.33 73.952 1175.75 74.496C1175.11 75.104 1174.76 76 1174.76 76.832C1174.76 77.696 1175.18 78.528 1175.75 79.104C1176.36 79.712 1177.19 80.064 1178.06 80.064C1178.89 80.064 1179.72 79.712 1180.33 79.104C1180.97 78.496 1181.32 77.664 1181.32 76.832C1181.32 76.064 1180.97 75.136 1180.33 74.496C1179.75 73.952 1178.86 73.568 1178.06 73.568ZM1186.63 76.832C1186.63 78.752 1185.99 80.576 1184.43 82.112C1182.54 83.968 1180.33 84.48 1178.03 84.48C1175.95 84.48 1173.64 84.064 1171.66 82.112C1170.09 80.576 1169.45 78.752 1169.45 76.832C1169.45 74.272 1170.6 72.608 1171.66 71.584C1172.84 70.432 1174.92 69.216 1178.03 69.216C1181.19 69.216 1183.24 70.464 1184.43 71.584C1185.48 72.608 1186.63 74.272 1186.63 76.832ZM1200.56 69.696H1205.68V83.104C1205.68 85.248 1205.49 87.2 1203.73 89.024C1201.91 90.88 1199.51 91.328 1197.43 91.328C1194.77 91.328 1192.56 90.656 1190.74 88.8C1189.91 87.936 1189.36 87.072 1189.17 85.824H1194.87C1195.06 86.4 1195.57 87.296 1197.27 87.296C1198.07 87.296 1198.87 87.136 1199.54 86.496C1200.4 85.696 1200.56 84.672 1200.56 83.84V82.4C1198.96 84.096 1197.43 84.288 1196.28 84.288C1193.65 84.288 1191.96 83.264 1191 82.272C1189.72 80.96 1189.01 79.008 1189.01 77.056C1189.01 74.816 1189.88 72.768 1191.12 71.456C1192.5 70.016 1194.42 69.28 1196.31 69.28C1197.2 69.28 1199.06 69.472 1200.56 71.168V69.696ZM1197.52 73.536C1196.66 73.536 1195.92 73.824 1195.25 74.496C1194.52 75.264 1194.26 76.128 1194.26 76.8C1194.26 77.632 1194.61 78.496 1195.25 79.136C1195.92 79.808 1196.79 80.064 1197.56 80.064C1198.36 80.064 1199.25 79.712 1199.86 79.104C1200.5 78.464 1200.82 77.536 1200.82 76.8C1200.82 76.064 1200.4 75.072 1199.8 74.464C1199.22 73.888 1198.39 73.536 1197.52 73.536ZM1209.21 69.696H1214.33V84H1209.21V69.696ZM1208.89 63.744C1208.89 62.144 1210.17 60.864 1211.77 60.864C1213.37 60.864 1214.65 62.144 1214.65 63.744C1214.65 65.344 1213.37 66.624 1211.77 66.624C1210.17 66.624 1208.89 65.344 1208.89 63.744ZM1217.81 84V69.696H1222.93V71.488C1224.33 69.632 1226.22 69.376 1227.47 69.376C1228.94 69.376 1230.51 69.728 1231.69 70.912C1232.91 72.128 1233.04 73.344 1233.04 74.912V84H1227.92V76.768C1227.92 75.936 1227.95 74.688 1227.28 73.984C1226.8 73.472 1226.16 73.376 1225.65 73.376C1224.85 73.376 1224.17 73.664 1223.76 74.048C1223.25 74.528 1222.93 75.456 1222.93 76.32V84H1217.81Z" fill="#03010C"/>
<rect x="927.5" y="273.5" width="148" height="149" fill="#D9D9D9"/>
<rect x="927.5" y="273.5" width="148" height="149" stroke="black"/>
<path d="M1027.09 369.625H975.906C972.644 369.625 970 367.149 970 364.094V330.906C970 327.851 972.644 325.375 975.906 325.375H1027.09C1030.36 325.375 1033 327.851 1033 330.906V364.094C1033 367.149 1030.36 369.625 1027.09 369.625ZM983.781 331.828C979.976 331.828 976.891 334.717 976.891 338.281C976.891 341.845 979.976 344.734 983.781 344.734C987.587 344.734 990.672 341.845 990.672 338.281C990.672 334.717 987.587 331.828 983.781 331.828ZM977.875 362.25H1025.12V349.344L1014.36 339.259C1013.78 338.719 1012.85 338.719 1012.27 339.259L995.594 354.875L988.763 348.478C988.186 347.938 987.251 347.938 986.675 348.478L977.875 356.719V362.25Z" fill="#CBCBCB"/>
<rect x="1089.5" y="273.5" width="148" height="149" fill="#D9D9D9"/>
<rect x="1089.5" y="273.5" width="148" height="149" stroke="black"/>
<path d="M1189.09 369.625H1137.91C1134.64 369.625 1132 367.149 1132 364.094V330.906C1132 327.851 1134.64 325.375 1137.91 325.375H1189.09C1192.36 325.375 1195 327.851 1195 330.906V364.094C1195 367.149 1192.36 369.625 1189.09 369.625ZM1145.78 331.828C1141.98 331.828 1138.89 334.717 1138.89 338.281C1138.89 341.845 1141.98 344.734 1145.78 344.734C1149.59 344.734 1152.67 341.845 1152.67 338.281C1152.67 334.717 1149.59 331.828 1145.78 331.828ZM1139.88 362.25H1187.12V349.344L1176.36 339.259C1175.78 338.719 1174.85 338.719 1174.27 339.259L1157.59 354.875L1150.76 348.478C1150.19 347.938 1149.25 347.938 1148.67 348.478L1139.88 356.719V362.25Z" fill="#CBCBCB"/>
<path d="M935.226 515.8L936.706 513C937.446 513.7 938.566 514.36 939.766 514.36C940.466 514.36 940.886 514.14 941.106 513.9C941.306 513.7 941.446 513.4 941.446 513.06C941.446 512.8 941.346 512.5 941.066 512.26C940.726 511.96 940.206 511.82 939.346 511.56L938.446 511.28C937.886 511.1 937.066 510.8 936.526 510.2C935.846 509.46 935.766 508.52 935.766 507.84C935.766 506.2 936.406 505.2 936.986 504.62C937.666 503.94 938.786 503.36 940.406 503.36C941.726 503.36 943.266 503.78 944.526 504.44L943.146 507.14C942.106 506.32 941.326 506.24 940.866 506.24C940.526 506.24 940.066 506.32 939.726 506.64C939.526 506.84 939.386 507.06 939.386 507.36C939.386 507.6 939.426 507.78 939.566 507.96C939.666 508.08 939.906 508.32 940.726 508.56L941.786 508.88C942.626 509.14 943.506 509.44 944.206 510.2C944.886 510.92 945.066 511.66 945.066 512.58C945.066 513.8 944.766 514.98 943.806 515.94C942.666 517.08 941.286 517.3 939.866 517.3C939.026 517.3 938.226 517.22 937.246 516.86C937.026 516.78 936.186 516.46 935.226 515.8ZM952.312 510.68H950.492V517H947.292V510.68H946.272V508.06H947.292V505.12H950.492V508.06H952.312V510.68ZM954.242 521.58L957.242 515.78L952.922 508.06H956.642L959.022 512.64L961.342 508.06H965.002L957.822 521.58H954.242ZM966.092 502.42H969.292V517H966.092V502.42ZM980.943 512.78V513.12H974.283C974.283 513.6 974.463 514.24 974.843 514.62C975.043 514.82 975.443 515.06 976.163 515.06C976.243 515.06 976.803 515.04 977.203 514.82C977.403 514.7 977.623 514.5 977.763 514.22H980.823C980.683 514.72 980.403 515.42 979.743 516.06C979.083 516.7 978.043 517.3 976.103 517.3C974.923 517.3 973.503 517.04 972.403 515.94C971.823 515.36 971.083 514.26 971.083 512.56C971.083 511.06 971.643 509.86 972.423 509.1C973.163 508.38 974.323 507.8 976.083 507.8C977.123 507.8 978.463 508.02 979.523 509.02C980.783 510.22 980.943 511.78 980.943 512.78ZM974.383 511.28H978.003C977.923 510.94 977.723 510.56 977.483 510.32C977.063 509.9 976.483 509.84 976.163 509.84C975.623 509.84 975.203 509.98 974.863 510.32C974.643 510.56 974.443 510.88 974.383 511.28ZM993.139 510.68H990.899V517H987.699V510.68H986.579V508.06H987.699V506.96C987.699 505.76 987.859 504.48 988.919 503.46C989.779 502.62 991.099 502.2 992.439 502.2C993.699 502.2 995.179 502.58 996.019 503.4C996.579 503.94 997.139 504.92 997.139 506.4V506.86H993.939V506.56C993.939 506.48 993.939 505.76 993.539 505.36C993.279 505.1 992.839 504.96 992.419 504.96C992.019 504.96 991.599 505.12 991.319 505.42C990.939 505.82 990.899 506.3 990.899 506.8V508.06H993.139V510.68ZM993.939 508.06H997.139V517H993.939V508.06ZM999.139 517V508.06H1002.34V509.18C1003.22 508.02 1004.4 507.86 1005.18 507.86C1006.1 507.86 1007.08 508.08 1007.82 508.82C1008.58 509.58 1008.66 510.34 1008.66 511.32V517H1005.46V512.48C1005.46 511.96 1005.48 511.18 1005.06 510.74C1004.76 510.42 1004.36 510.36 1004.04 510.36C1003.54 510.36 1003.12 510.54 1002.86 510.78C1002.54 511.08 1002.34 511.66 1002.34 512.2V517H999.139ZM1020.96 502.42V517H1017.76V516.02C1016.86 517.18 1015.68 517.3 1015.06 517.3C1013.78 517.3 1012.76 516.88 1011.92 516.06C1011.02 515.18 1010.48 513.92 1010.48 512.5C1010.48 510.98 1011.12 509.74 1011.94 508.96C1012.82 508.12 1014 507.76 1015.1 507.76C1016.32 507.76 1017.18 508.3 1017.76 508.92V502.42H1020.96ZM1015.8 514.58C1016.32 514.58 1016.84 514.34 1017.18 514.04C1017.6 513.66 1017.86 513.06 1017.86 512.52C1017.86 512.02 1017.58 511.42 1017.26 511.08C1016.9 510.7 1016.4 510.48 1015.8 510.48C1015.12 510.48 1014.66 510.78 1014.38 511.06C1014.02 511.42 1013.76 511.98 1013.76 512.58C1013.76 513.04 1013.96 513.56 1014.38 513.98C1014.82 514.42 1015.34 514.58 1015.8 514.58ZM1032.64 512.78V513.12H1025.98C1025.98 513.6 1026.16 514.24 1026.54 514.62C1026.74 514.82 1027.14 515.06 1027.86 515.06C1027.94 515.06 1028.5 515.04 1028.9 514.82C1029.1 514.7 1029.32 514.5 1029.46 514.22H1032.52C1032.38 514.72 1032.1 515.42 1031.44 516.06C1030.78 516.7 1029.74 517.3 1027.8 517.3C1026.62 517.3 1025.2 517.04 1024.1 515.94C1023.52 515.36 1022.78 514.26 1022.78 512.56C1022.78 511.06 1023.34 509.86 1024.12 509.1C1024.86 508.38 1026.02 507.8 1027.78 507.8C1028.82 507.8 1030.16 508.02 1031.22 509.02C1032.48 510.22 1032.64 511.78 1032.64 512.78ZM1026.08 511.28H1029.7C1029.62 510.94 1029.42 510.56 1029.18 510.32C1028.76 509.9 1028.18 509.84 1027.86 509.84C1027.32 509.84 1026.9 509.98 1026.56 510.32C1026.34 510.56 1026.14 510.88 1026.08 511.28ZM1034.49 517V508.06H1037.69V509.52C1038.01 508.92 1038.47 508.52 1038.95 508.28C1039.43 508.02 1040.01 507.92 1040.61 507.92C1040.69 507.92 1040.83 507.94 1041.25 507.96V510.98C1041.09 510.9 1040.65 510.66 1039.87 510.66C1039.45 510.66 1038.87 510.72 1038.41 511.14C1037.73 511.76 1037.69 512.7 1037.69 513.18V517H1034.49Z" fill="#03010C"/>
<rect x="927.5" y="544.5" width="148" height="149" fill="#D9D9D9"/>
<rect x="927.5" y="544.5" width="148" height="149" stroke="black"/>
<path d="M1027.09 640.625H975.906C972.644 640.625 970 638.149 970 635.094V601.906C970 598.851 972.644 596.375 975.906 596.375H1027.09C1030.36 596.375 1033 598.851 1033 601.906V635.094C1033 638.149 1030.36 640.625 1027.09 640.625ZM983.781 602.828C979.976 602.828 976.891 605.717 976.891 609.281C976.891 612.845 979.976 615.734 983.781 615.734C987.587 615.734 990.672 612.845 990.672 609.281C990.672 605.717 987.587 602.828 983.781 602.828ZM977.875 633.25H1025.12V620.344L1014.36 610.259C1013.78 609.719 1012.85 609.719 1012.27 610.259L995.594 625.875L988.763 619.478C988.186 618.938 987.251 618.938 986.675 619.478L977.875 627.719V633.25Z" fill="#CBCBCB"/>
<rect x="1089.5" y="544.5" width="148" height="149" fill="#D9D9D9"/>
<rect x="1089.5" y="544.5" width="148" height="149" stroke="black"/>
<path d="M1189.09 640.625H1137.91C1134.64 640.625 1132 638.149 1132 635.094V601.906C1132 598.851 1134.64 596.375 1137.91 596.375H1189.09C1192.36 596.375 1195 598.851 1195 601.906V635.094C1195 638.149 1192.36 640.625 1189.09 640.625ZM1145.78 602.828C1141.98 602.828 1138.89 605.717 1138.89 609.281C1138.89 612.845 1141.98 615.734 1145.78 615.734C1149.59 615.734 1152.67 612.845 1152.67 609.281C1152.67 605.717 1149.59 602.828 1145.78 602.828ZM1139.88 633.25H1187.12V620.344L1176.36 610.259C1175.78 609.719 1174.85 609.719 1174.27 610.259L1157.59 625.875L1150.76 619.478C1150.19 618.938 1149.25 618.938 1148.67 619.478L1139.88 627.719V633.25Z" fill="#CBCBCB"/>
<rect width="393" height="60" transform="translate(880 818)" fill="#F2F6FF"/>
<path d="M999 828.625C1000.08 828.625 1001.11 829.053 1001.87 829.815C1002.63 830.577 1003.06 831.61 1003.06 832.688V833.5H994.938V832.688C994.938 831.61 995.366 830.577 996.127 829.815C996.889 829.053 997.923 828.625 999 828.625ZM1004.69 833.5V832.688C1004.69 831.179 1004.09 829.732 1003.02 828.666C1001.96 827.599 1000.51 827 999 827C997.492 827 996.045 827.599 994.978 828.666C993.912 829.732 993.312 831.179 993.312 832.688V833.5H987.625V849.75C987.625 850.612 987.967 851.439 988.577 852.048C989.186 852.658 990.013 853 990.875 853H1007.12C1007.99 853 1008.81 852.658 1009.42 852.048C1010.03 851.439 1010.38 850.612 1010.38 849.75V833.5H1004.69ZM989.25 835.125H1008.75V849.75C1008.75 850.181 1008.58 850.594 1008.27 850.899C1007.97 851.204 1007.56 851.375 1007.12 851.375H990.875C990.444 851.375 990.031 851.204 989.726 850.899C989.421 850.594 989.25 850.181 989.25 849.75V835.125Z" fill="#03010C"/>
<path fill-rule="evenodd" clip-rule="evenodd" d="M1220 827.5C1221.64 827.5 1223.27 827.823 1224.78 828.451C1226.3 829.08 1227.68 830 1228.84 831.161C1230 832.322 1230.92 833.7 1231.55 835.216C1232.18 836.733 1232.5 838.358 1232.5 840C1232.5 846.904 1226.9 852.5 1220 852.5C1213.1 852.5 1207.5 846.904 1207.5 840C1207.5 833.096 1213.1 827.5 1220 827.5ZM1221.25 841.25H1218.75C1215.66 841.25 1213 843.124 1211.85 845.8C1213.67 848.342 1216.64 850 1220 850C1223.36 850 1226.33 848.342 1228.15 845.8C1227 843.124 1224.34 841.25 1221.25 841.25ZM1220 831.25C1217.93 831.25 1216.25 832.929 1216.25 835C1216.25 837.071 1217.93 838.75 1220 838.75C1222.07 838.75 1223.75 837.071 1223.75 835C1223.75 832.929 1222.07 831.25 1220 831.25Z" fill="#03010C"/>
<g clip-path="url(#clip2_40000073_2036)">
<path d="M929.31 830.5C928.013 830.5 926.735 830.813 925.585 831.412C924.435 832.012 923.446 832.88 922.703 833.943C921.96 835.006 921.485 836.233 921.318 837.519C921.15 838.805 921.295 840.112 921.741 841.33C922.187 842.548 922.92 843.64 923.878 844.515C924.836 845.389 925.991 846.018 927.245 846.351C928.499 846.683 929.814 846.708 931.079 846.423C932.345 846.138 933.523 845.553 934.513 844.715C934.489 845.009 934.589 845.311 934.814 845.535L938.974 849.695C939.169 849.89 943.224 853 943.5 853C943.776 853 943.805 853.195 944 853C944.195 852.805 944 852.776 944 852.5C944 852.224 940.641 848.419 940.446 848.224L936.286 844.064C936.179 843.957 936.05 843.875 935.909 843.823C935.767 843.771 935.616 843.751 935.465 843.763C936.458 842.589 937.093 841.157 937.298 839.634C937.503 838.11 937.268 836.561 936.621 835.167C935.974 833.773 934.942 832.593 933.647 831.766C932.351 830.939 930.847 830.5 929.31 830.5ZM922.81 838.56C922.81 837.706 922.978 836.861 923.305 836.072C923.631 835.284 924.11 834.567 924.714 833.964C925.317 833.36 926.034 832.881 926.823 832.555C927.611 832.228 928.456 832.06 929.31 832.06C930.164 832.06 931.009 832.228 931.797 832.555C932.586 832.881 933.303 833.36 933.906 833.964C934.51 834.567 934.989 835.284 935.315 836.072C935.642 836.861 935.81 837.706 935.81 838.56C935.81 840.284 935.125 841.937 933.906 843.156C932.687 844.375 931.034 845.06 929.31 845.06C927.586 845.06 925.933 844.375 924.714 843.156C923.495 841.937 922.81 840.284 922.81 838.56Z" fill="#03010C"/>
</g>
<path d="M1140.25 828.921C1140.7 828.921 1141.15 829.041 1141.55 829.268C1141.95 829.495 1142.28 829.822 1142.51 830.216L1143.46 831.834H1145.88C1146.88 831.834 1147.84 832.234 1148.56 832.945C1149.27 833.655 1149.67 834.62 1149.67 835.625V846.708C1149.67 847.206 1149.57 847.699 1149.38 848.159C1149.19 848.619 1148.91 849.037 1148.56 849.389C1148.2 849.742 1147.79 850.021 1147.33 850.211C1146.87 850.402 1146.37 850.5 1145.88 850.5H1130.13C1129.12 850.5 1128.15 850.101 1127.44 849.389C1126.73 848.678 1126.33 847.714 1126.33 846.708V835.625C1126.33 834.619 1126.73 833.655 1127.44 832.944C1128.15 832.233 1129.12 831.833 1130.13 831.833H1132.55L1133.57 830.172C1133.81 829.79 1134.14 829.474 1134.53 829.255C1134.92 829.035 1135.36 828.92 1135.81 828.92L1140.25 828.921ZM1140.25 830.671H1135.81C1135.68 830.671 1135.56 830.699 1135.44 830.753C1135.32 830.808 1135.22 830.886 1135.14 830.984L1135.06 831.089L1133.79 833.166C1133.71 833.293 1133.6 833.399 1133.47 833.472C1133.34 833.545 1133.19 833.583 1133.04 833.583H1130.13C1129.86 833.583 1129.59 833.636 1129.34 833.738C1129.1 833.841 1128.87 833.991 1128.68 834.181C1128.49 834.371 1128.34 834.596 1128.24 834.843C1128.14 835.091 1128.08 835.357 1128.08 835.625V846.708C1128.08 847.835 1129 848.75 1130.13 848.75H1145.88C1146.42 848.75 1146.94 848.535 1147.32 848.152C1147.7 847.769 1147.92 847.25 1147.92 846.708V835.625C1147.92 835.084 1147.7 834.564 1147.32 834.181C1146.94 833.798 1146.42 833.583 1145.88 833.583H1142.96C1142.81 833.583 1142.66 833.544 1142.52 833.468C1142.39 833.392 1142.28 833.283 1142.2 833.152L1141 831.102C1140.92 830.971 1140.81 830.862 1140.68 830.786C1140.55 830.71 1140.4 830.67 1140.25 830.67M1138 835.333C1139.39 835.333 1140.73 835.886 1141.71 836.871C1142.7 837.856 1143.25 839.191 1143.25 840.583C1143.25 841.976 1142.7 843.311 1141.71 844.296C1140.73 845.28 1139.39 845.833 1138 845.833C1136.61 845.833 1135.27 845.28 1134.29 844.296C1133.3 843.311 1132.75 841.976 1132.75 840.583C1132.75 839.191 1133.3 837.856 1134.29 836.871C1135.27 835.886 1136.61 835.333 1138 835.333ZM1138 837.083C1137.54 837.083 1137.09 837.174 1136.66 837.35C1136.24 837.526 1135.85 837.783 1135.53 838.108C1135.2 838.433 1134.94 838.819 1134.77 839.244C1134.59 839.669 1134.5 840.124 1134.5 840.583C1134.5 841.043 1134.59 841.498 1134.77 841.923C1134.94 842.347 1135.2 842.733 1135.53 843.058C1135.85 843.383 1136.24 843.641 1136.66 843.817C1137.09 843.993 1137.54 844.083 1138 844.083C1138.93 844.083 1139.82 843.715 1140.47 843.058C1141.13 842.402 1141.5 841.512 1141.5 840.583C1141.5 839.655 1141.13 838.765 1140.47 838.108C1139.82 837.452 1138.93 837.083 1138 837.083Z" fill="#03010C"/>
<path d="M1056.08 840.712C1056.08 838.328 1056.08 837.136 1056.62 836.149C1057.16 835.16 1058.15 834.548 1060.13 833.321L1062.21 832.028C1064.3 830.731 1065.35 830.083 1066.5 830.083C1067.65 830.083 1068.7 830.731 1070.79 832.028L1072.87 833.321C1074.85 834.548 1075.84 835.16 1076.38 836.149C1076.92 837.137 1076.92 838.328 1076.92 840.711V842.297C1076.92 846.359 1076.92 848.392 1075.7 849.654C1074.47 850.917 1072.51 850.917 1068.58 850.917H1064.42C1060.49 850.917 1058.52 850.917 1057.3 849.654C1056.08 848.392 1056.08 846.36 1056.08 842.297V840.712Z" stroke="#03010C" stroke-width="1.5625"/>
<path d="M1063.38 844.667C1064.26 845.323 1065.34 845.708 1066.5 845.708C1067.66 845.708 1068.74 845.323 1069.62 844.667" stroke="#03010C" stroke-width="1.5625" stroke-linecap="round"/>
<path d="M901 819H963" stroke="#03010C" stroke-width="2"/>
<g clip-path="url(#clip3_40000073_2036)">
<rect x="1313" y="20" width="393" height="858" fill="#F2F6FF"/>
<rect x="1313.5" y="20.5" width="392" height="644" fill="#D9D9D9"/>
<rect x="1313.5" y="20.5" width="392" height="644" stroke="black"/>
<path d="M1604.75 430H1403.25C1390.41 430 1380 420.262 1380 408.25V277.75C1380 265.738 1390.41 256 1403.25 256H1604.75C1617.59 256 1628 265.738 1628 277.75V408.25C1628 420.262 1617.59 430 1604.75 430ZM1434.25 281.375C1419.27 281.375 1407.12 292.736 1407.12 306.75C1407.12 320.764 1419.27 332.125 1434.25 332.125C1449.23 332.125 1461.38 320.764 1461.38 306.75C1461.38 292.736 1449.23 281.375 1434.25 281.375ZM1411 401H1597V350.25L1554.61 310.595C1552.34 308.471 1548.66 308.471 1546.39 310.595L1480.75 372L1453.86 346.845C1451.59 344.721 1447.91 344.721 1445.64 346.845L1411 379.25V401Z" fill="#CBCBCB"/>
<path d="M1353 579.5H1666C1687.26 579.5 1704.5 596.737 1704.5 618V663.5H1314.5V618L1314.51 617.006C1315.04 596.202 1332.07 579.5 1353 579.5Z" fill="#F2F6FF" stroke="black" stroke-width="3"/>
<rect x="1525" y="602" width="40" height="40" fill="#D9D9D9"/>
<rect x="1578" y="602" width="40" height="40" fill="#D9D9D9"/>
<rect x="1632" y="602" width="40" height="40" fill="#D9D9D9"/>
<line x1="1349.5" y1="605.5" x2="1479.5" y2="605.5" stroke="black" stroke-width="5" stroke-linecap="round"/>
<line x1="1349.5" y1="619.5" x2="1479.5" y2="619.5" stroke="black" stroke-width="5" stroke-linecap="round"/>
<rect x="1313.5" y="665.5" width="392" height="644" fill="#D9D9D9"/>
<rect x="1313.5" y="665.5" width="392" height="644" stroke="black"/>
<rect width="393" height="60" transform="translate(1313 818)" fill="#F2F6FF"/>
<path d="M1432 828.625C1433.08 828.625 1434.11 829.053 1434.87 829.815C1435.63 830.577 1436.06 831.61 1436.06 832.688V833.5H1427.94V832.688C1427.94 831.61 1428.37 830.577 1429.13 829.815C1429.89 829.053 1430.92 828.625 1432 828.625ZM1437.69 833.5V832.688C1437.69 831.179 1437.09 829.732 1436.02 828.666C1434.96 827.599 1433.51 827 1432 827C1430.49 827 1429.04 827.599 1427.98 828.666C1426.91 829.732 1426.31 831.179 1426.31 832.688V833.5H1420.62V849.75C1420.62 850.612 1420.97 851.439 1421.58 852.048C1422.19 852.658 1423.01 853 1423.88 853H1440.12C1440.99 853 1441.81 852.658 1442.42 852.048C1443.03 851.439 1443.38 850.612 1443.38 849.75V833.5H1437.69ZM1422.25 835.125H1441.75V849.75C1441.75 850.181 1441.58 850.594 1441.27 850.899C1440.97 851.204 1440.56 851.375 1440.12 851.375H1423.88C1423.44 851.375 1423.03 851.204 1422.73 850.899C1422.42 850.594 1422.25 850.181 1422.25 849.75V835.125Z" fill="#03010C"/>
<path fill-rule="evenodd" clip-rule="evenodd" d="M1653 827.5C1654.64 827.5 1656.27 827.823 1657.78 828.451C1659.3 829.08 1660.68 830 1661.84 831.161C1663 832.322 1663.92 833.7 1664.55 835.216C1665.18 836.733 1665.5 838.358 1665.5 840C1665.5 846.904 1659.9 852.5 1653 852.5C1646.1 852.5 1640.5 846.904 1640.5 840C1640.5 833.096 1646.1 827.5 1653 827.5ZM1654.25 841.25H1651.75C1648.66 841.25 1646 843.124 1644.85 845.8C1646.67 848.342 1649.64 850 1653 850C1656.36 850 1659.33 848.342 1661.15 845.8C1660 843.124 1657.34 841.25 1654.25 841.25ZM1653 831.25C1650.93 831.25 1649.25 832.929 1649.25 835C1649.25 837.071 1650.93 838.75 1653 838.75C1655.07 838.75 1656.75 837.071 1656.75 835C1656.75 832.929 1655.07 831.25 1653 831.25Z" fill="#03010C"/>
<g clip-path="url(#clip4_40000073_2036)">
<path d="M1362.31 830.5C1361.01 830.5 1359.74 830.813 1358.59 831.412C1357.43 832.012 1356.45 832.88 1355.7 833.943C1354.96 835.006 1354.49 836.233 1354.32 837.519C1354.15 838.805 1354.3 840.112 1354.74 841.33C1355.19 842.548 1355.92 843.64 1356.88 844.515C1357.84 845.389 1358.99 846.018 1360.25 846.351C1361.5 846.683 1362.81 846.708 1364.08 846.423C1365.34 846.138 1366.52 845.553 1367.51 844.715C1367.49 845.009 1367.59 845.311 1367.81 845.535L1371.97 849.695C1372.17 849.89 1376.22 853 1376.5 853C1376.78 853 1376.8 853.195 1377 853C1377.2 852.805 1377 852.776 1377 852.5C1377 852.224 1373.64 848.419 1373.45 848.224L1369.29 844.064C1369.18 843.957 1369.05 843.875 1368.91 843.823C1368.77 843.771 1368.62 843.751 1368.47 843.763C1369.46 842.589 1370.09 841.157 1370.3 839.634C1370.5 838.11 1370.27 836.561 1369.62 835.167C1368.97 833.773 1367.94 832.593 1366.65 831.766C1365.35 830.939 1363.85 830.5 1362.31 830.5ZM1355.81 838.56C1355.81 837.706 1355.98 836.861 1356.3 836.072C1356.63 835.284 1357.11 834.567 1357.71 833.964C1358.32 833.36 1359.03 832.881 1359.82 832.555C1360.61 832.228 1361.46 832.06 1362.31 832.06C1363.16 832.06 1364.01 832.228 1364.8 832.555C1365.59 832.881 1366.3 833.36 1366.91 833.964C1367.51 834.567 1367.99 835.284 1368.32 836.072C1368.64 836.861 1368.81 837.706 1368.81 838.56C1368.81 840.284 1368.13 841.937 1366.91 843.156C1365.69 844.375 1364.03 845.06 1362.31 845.06C1360.59 845.06 1358.93 844.375 1357.71 843.156C1356.49 841.937 1355.81 840.284 1355.81 838.56Z" fill="#03010C"/>
</g>
<path d="M1573.25 828.921C1573.7 828.921 1574.15 829.041 1574.55 829.268C1574.95 829.495 1575.28 829.822 1575.51 830.216L1576.46 831.834H1578.87C1579.88 831.834 1580.84 832.234 1581.56 832.945C1582.27 833.655 1582.67 834.62 1582.67 835.625V846.708C1582.67 847.206 1582.57 847.699 1582.38 848.159C1582.19 848.619 1581.91 849.037 1581.56 849.389C1581.2 849.742 1580.79 850.021 1580.33 850.211C1579.87 850.402 1579.37 850.5 1578.87 850.5H1563.12C1562.12 850.5 1561.15 850.101 1560.44 849.389C1559.73 848.678 1559.33 847.714 1559.33 846.708V835.625C1559.33 834.619 1559.73 833.655 1560.44 832.944C1561.15 832.233 1562.12 831.833 1563.12 831.833H1565.55L1566.57 830.172C1566.81 829.79 1567.14 829.474 1567.53 829.255C1567.92 829.035 1568.36 828.92 1568.81 828.92L1573.25 828.921ZM1573.25 830.671H1568.81C1568.68 830.671 1568.56 830.699 1568.44 830.753C1568.32 830.808 1568.22 830.886 1568.14 830.984L1568.06 831.089L1566.79 833.166C1566.71 833.293 1566.6 833.399 1566.47 833.472C1566.34 833.545 1566.19 833.583 1566.04 833.583H1563.13C1562.86 833.583 1562.59 833.636 1562.34 833.738C1562.1 833.841 1561.87 833.991 1561.68 834.181C1561.49 834.371 1561.34 834.596 1561.24 834.843C1561.14 835.091 1561.08 835.357 1561.08 835.625V846.708C1561.08 847.835 1562 848.75 1563.12 848.75H1578.87C1579.42 848.75 1579.94 848.535 1580.32 848.152C1580.7 847.769 1580.92 847.25 1580.92 846.708V835.625C1580.92 835.084 1580.7 834.564 1580.32 834.181C1579.94 833.798 1579.42 833.583 1578.87 833.583H1575.96C1575.81 833.583 1575.66 833.544 1575.52 833.468C1575.39 833.392 1575.28 833.283 1575.2 833.152L1574 831.102C1573.92 830.971 1573.81 830.862 1573.68 830.786C1573.55 830.71 1573.4 830.67 1573.25 830.67M1571 835.333C1572.39 835.333 1573.73 835.886 1574.71 836.871C1575.7 837.856 1576.25 839.191 1576.25 840.583C1576.25 841.976 1575.7 843.311 1574.71 844.296C1573.73 845.28 1572.39 845.833 1571 845.833C1569.61 845.833 1568.27 845.28 1567.29 844.296C1566.3 843.311 1565.75 841.976 1565.75 840.583C1565.75 839.191 1566.3 837.856 1567.29 836.871C1568.27 835.886 1569.61 835.333 1571 835.333ZM1571 837.083C1570.54 837.083 1570.09 837.174 1569.66 837.35C1569.24 837.526 1568.85 837.783 1568.53 838.108C1568.2 838.433 1567.94 838.819 1567.77 839.244C1567.59 839.669 1567.5 840.124 1567.5 840.583C1567.5 841.043 1567.59 841.498 1567.77 841.923C1567.94 842.347 1568.2 842.733 1568.53 843.058C1568.85 843.383 1569.24 843.641 1569.66 843.817C1570.09 843.993 1570.54 844.083 1571 844.083C1571.93 844.083 1572.82 843.715 1573.47 843.058C1574.13 842.402 1574.5 841.512 1574.5 840.583C1574.5 839.655 1574.13 838.765 1573.47 838.108C1572.82 837.452 1571.93 837.083 1571 837.083Z" fill="#03010C"/>
<path d="M1489.08 840.712C1489.08 838.328 1489.08 837.136 1489.62 836.149C1490.16 835.16 1491.15 834.548 1493.13 833.321L1495.21 832.028C1497.3 830.731 1498.35 830.083 1499.5 830.083C1500.65 830.083 1501.7 830.731 1503.79 832.028L1505.87 833.321C1507.85 834.548 1508.84 835.16 1509.38 836.149C1509.92 837.137 1509.92 838.328 1509.92 840.711V842.297C1509.92 846.359 1509.92 848.392 1508.7 849.654C1507.47 850.917 1505.51 850.917 1501.58 850.917H1497.42C1493.49 850.917 1491.52 850.917 1490.3 849.654C1489.08 848.392 1489.08 846.36 1489.08 842.297V840.712Z" stroke="#03010C" stroke-width="1.5625"/>
<path d="M1496.38 844.667C1497.26 845.323 1498.34 845.708 1499.5 845.708C1500.66 845.708 1501.74 845.323 1502.62 844.667" stroke="#03010C" stroke-width="1.5625" stroke-linecap="round"/>
<path d="M1334 819H1396" stroke="#03010C" stroke-width="2"/>
</g>
<rect x="1314" y="21" width="391" height="856" stroke="black" stroke-width="2"/>
<defs>
<clipPath id="clip0_40000073_2036">
<rect width="26" height="26" fill="white" transform="translate(52 827)"/>
</clipPath>
<clipPath id="clip1_40000073_2036">
<rect width="26" height="26" fill="white" transform="translate(485 827)"/>
</clipPath>
<clipPath id="clip2_40000073_2036">
<rect width="26" height="26" fill="white" transform="translate(918 827)"/>
</clipPath>
<clipPath id="clip3_40000073_2036">
<rect x="1313" y="20" width="393" height="858" fill="white"/>
</clipPath>
<clipPath id="clip4_40000073_2036">
<rect width="26" height="26" fill="white" transform="translate(1351 827)"/>
</clipPath>
</defs>
</svg>
